<svg width="378" height="378" viewBox="0 0 378 378" fill="none" xmlns="http://www.w3.org/2000/svg"><path d="M13.5 6.75a6.75 6.75 0 11-13.5 0 6.75 6.75 0 0113.5 0zm40.5 0a6.75 6.75 0 11-13.5 0 6.75 6.75 0 0113.5 0zm40.5 0a6.75 6.75 0 11-13.5 0 6.75 6.75 0 0113.5 0zm40.5 0a6.75 6.75 0 11-13.5 0 6.75 6.75 0 0113.5 0zm40.5 0a6.75 6.75 0 11-13.5 0 6.75 6.75 0 0113.5 0zm40.5 0a6.75 6.75 0 11-13.5 0 6.75 6.75 0 0113.5 0zm40.5 0a6.75 6.75 0 11-13.5 0 6.75 6.75 0 0113.5 0zm40.5 0a6.75 6.75 0 11-13.5 0 6.75 6.75 0 0113.5 0zm40.5 0a6.75 6.75 0 11-13.5 0 6.75 6.75 0 0113.5 0zm40.5 0a6.75 6.75 0 11-13.5 0 6.75 6.75 0 0113.5 0zM13.5 47.25a6.75 6.75 0 11-13.5 0 6.75 6.75 0 0113.5 0zm40.5 0a6.75 6.75 0 11-13.5 0 6.75 6.75 0 0113.5 0zm40.5 0a6.75 6.75 0 11-13.5 0 6.75 6.75 0 0113.5 0zm40.5 0a6.75 6.75 0 11-13.5 0 6.75 6.75 0 0113.5 0zm40.5 0a6.75 6.75 0 11-13.5 0 6.75 6.75 0 0113.5 0zm40.5 0a6.75 6.75 0 11-13.5 0 6.75 6.75 0 0113.5 0zm40.5 0a6.75 6.75 0 11-13.5 0 6.75 6.75 0 0113.5 0zm40.5 0a6.75 6.75 0 11-13.5 0 6.75 6.75 0 0113.5 0zm40.5 0a6.75 6.75 0 11-13.5 0 6.75 6.75 0 0113.5 0zm40.5 0a6.75 6.75 0 11-13.5 0 6.75 6.75 0 0113.5 0zM13.5 87.75a6.75 6.75 0 11-13.5 0 6.75 6.75 0 0113.5 0zm40.5 0a6.75 6.75 0 11-13.5 0 6.75 6.75 0 0113.5 0zm40.5 0a6.75 6.75 0 11-13.5 0 6.75 6.75 0 0113.5 0zm40.5 0a6.75 6.75 0 11-13.5 0 6.75 6.75 0 0113.5 0zm40.5 0a6.75 6.75 0 11-13.5 0 6.75 6.75 0 0113.5 0zm40.5 0a6.75 6.75 0 11-13.5 0 6.75 6.75 0 0113.5 0zm40.5 0a6.75 6.75 0 11-13.5 0 6.75 6.75 0 0113.5 0zm40.5 0a6.75 6.75 0 11-13.5 0 6.75 6.75 0 0113.5 0zm40.5 0a6.75 6.75 0 11-13.5 0 6.75 6.75 0 0113.5 0zm40.5 0a6.75 6.75 0 11-13.5 0 6.75 6.75 0 0113.5 0zm-364.5 40.5a6.75 6.75 0 11-13.5 0 6.75 6.75 0 0113.5 0zm40.5 0a6.75 6.75 0 11-13.5 0 6.75 6.75 0 0113.5 0zm40.5 0a6.75 6.75 0 11-13.5 0 6.75 6.75 0 0113.5 0zm40.5 0a6.75 6.75 0 11-13.5 0 6.75 6.75 0 0113.5 0zm40.5 0a6.75 6.75 0 11-13.5 0 6.75 6.75 0 0113.5 0zm40.5 0a6.75 6.75 0 11-13.5 0 6.75 6.75 0 0113.5 0zm40.5 0a6.75 6.75 0 11-13.5 0 6.75 6.75 0 0113.5 0zm40.5 0a6.75 6.75 0 11-13.5 0 6.75 6.75 0 0113.5 0zm40.5 0a6.75 6.75 0 11-13.5 0 6.75 6.75 0 0113.5 0zm40.5 0a6.75 6.75 0 11-13.5 0 6.75 6.75 0 0113.5 0zm-364.5 40.5a6.75 6.75 0 11-13.5 0 6.75 6.75 0 0113.5 0zm40.5 0a6.75 6.75 0 11-13.5 0 6.75 6.75 0 0113.5 0zm40.5 0a6.75 6.75 0 11-13.5 0 6.75 6.75 0 0113.5 0zm40.5 0a6.75 6.75 0 11-13.5 0 6.75 6.75 0 0113.5 0zm40.5 0a6.75 6.75 0 11-13.5 0 6.75 6.75 0 0113.5 0zm40.5 0a6.75 6.75 0 11-13.5 0 6.75 6.75 0 0113.5 0zm40.5 0a6.75 6.75 0 11-13.5 0 6.75 6.75 0 0113.5 0zm40.5 0a6.75 6.75 0 11-13.5 0 6.75 6.75 0 0113.5 0zm40.5 0a6.75 6.75 0 11-13.5 0 6.75 6.75 0 0113.5 0zm40.5 0a6.75 6.75 0 11-13.5 0 6.75 6.75 0 0113.5 0zm-364.5 40.5a6.75 6.75 0 11-13.5 0 6.75 6.75 0 0113.5 0zm40.5 0a6.75 6.75 0 11-13.5 0 6.75 6.75 0 0113.5 0zm40.5 0a6.75 6.75 0 11-13.5 0 6.75 6.75 0 0113.5 0zm40.5 0a6.75 6.75 0 11-13.5 0 6.75 6.75 0 0113.5 0zm40.5 0a6.75 6.75 0 11-13.5 0 6.75 6.75 0 0113.5 0zm40.5 0a6.75 6.75 0 11-13.5 0 6.75 6.75 0 0113.5 0zm40.5 0a6.75 6.75 0 11-13.5 0 6.75 6.75 0 0113.5 0zm40.5 0a6.75 6.75 0 11-13.5 0 6.75 6.75 0 0113.5 0zm40.5 0a6.75 6.75 0 11-13.5 0 6.75 6.75 0 0113.5 0zm40.5 0a6.75 6.75 0 11-13.5 0 6.75 6.75 0 0113.5 0zm-364.5 40.5a6.75 6.75 0 11-13.5 0 6.75 6.75 0 0113.5 0zm40.5 0a6.75 6.75 0 11-13.5 0 6.75 6.75 0 0113.5 0zm40.5 0a6.75 6.75 0 11-13.5 0 6.75 6.75 0 0113.5 0zm40.5 0a6.75 6.75 0 11-13.5 0 6.75 6.75 0 0113.5 0zm40.5 0a6.75 6.75 0 11-13.5 0 6.75 6.75 0 0113.5 0zm40.5 0a6.75 6.75 0 11-13.5 0 6.75 6.75 0 0113.5 0zm40.5 0a6.75 6.75 0 11-13.5 0 6.75 6.75 0 0113.5 0zm40.5 0a6.75 6.75 0 11-13.5 0 6.75 6.75 0 0113.5 0zm40.5 0a6.75 6.75 0 11-13.5 0 6.75 6.75 0 0113.5 0zm40.5 0a6.75 6.75 0 11-13.5 0 6.75 6.75 0 0113.5 0zm-364.5 40.5a6.75 6.75 0 11-13.5 0 6.75 6.75 0 0113.5 0zm40.5 0a6.75 6.75 0 11-13.5 0 6.75 6.75 0 0113.5 0zm40.5 0a6.75 6.75 0 11-13.5 0 6.75 6.75 0 0113.5 0zm40.5 0a6.75 6.75 0 11-13.5 0 6.75 6.75 0 0113.5 0zm40.5 0a6.75 6.75 0 11-13.5 0 6.75 6.75 0 0113.5 0zm40.5 0a6.75 6.75 0 11-13.5 0 6.75 6.75 0 0113.5 0zm40.5 0a6.75 6.75 0 11-13.5 0 6.75 6.75 0 0113.5 0zm40.5 0a6.75 6.75 0 11-13.5 0 6.75 6.75 0 0113.5 0zm40.5 0a6.75 6.75 0 11-13.5 0 6.75 6.75 0 0113.5 0zm40.5 0a6.75 6.75 0 11-13.5 0 6.75 6.75 0 0113.5 0zm-364.5 40.5a6.75 6.75 0 11-13.5 0 6.75 6.75 0 0113.5 0zm40.5 0a6.75 6.75 0 11-13.5 0 6.75 6.75 0 0113.5 0zm40.5 0a6.75 6.75 0 11-13.5 0 6.75 6.75 0 0113.5 0zm40.5 0a6.75 6.75 0 11-13.5 0 6.75 6.75 0 0113.5 0zm40.5 0a6.75 6.75 0 11-13.5 0 6.75 6.75 0 0113.5 0zm40.5 0a6.75 6.75 0 11-13.5 0 6.75 6.75 0 0113.5 0zm40.5 0a6.75 6.75 0 11-13.5 0 6.75 6.75 0 0113.5 0zm40.5 0a6.75 6.75 0 11-13.5 0 6.75 6.75 0 0113.5 0zm40.5 0a6.75 6.75 0 11-13.5 0 6.75 6.75 0 0113.5 0zm40.5 0a6.75 6.75 0 11-13.5 0 6.75 6.75 0 0113.5 0zm-364.5 40.5a6.75 6.75 0 11-13.5 0 6.75 6.75 0 0113.5 0zm40.5 0a6.75 6.75 0 11-13.5 0 6.75 6.75 0 0113.5 0zm40.5 0a6.75 6.75 0 11-13.5 0 6.75 6.75 0 0113.5 0zm40.5 0a6.75 6.75 0 11-13.5 0 6.75 6.75 0 0113.5 0zm40.5 0a6.75 6.75 0 11-13.5 0 6.75 6.75 0 0113.5 0zm40.5 0a6.75 6.75 0 11-13.5 0 6.75 6.75 0 0113.5 0zm40.5 0a6.75 6.75 0 11-13.5 0 6.75 6.75 0 0113.5 0zm40.5 0a6.75 6.75 0 11-13.5 0 6.75 6.75 0 0113.5 0zm40.5 0a6.75 6.75 0 11-13.5 0 6.75 6.75 0 0113.5 0zm40.5 0a6.75 6.75 0 11-13.5 0 6.75 6.75 0 0113.5 0z" fill="#003E9C"/><rect x="61" y="61" width="256" height="256" rx="128" fill="#fff"/><path d="M155.073 201.56v8.874h-8.67V224h-9.486v-13.566h-36.414v-8.874l25.602-48.96h10.2l-25.602 48.96h26.214v-20.196h9.486v20.196h8.67zm54.731 13.668c-4.828 6.732-11.594 10.098-20.298 10.098-8.704 0-15.47-3.366-20.298-10.098-4.828-6.732-7.242-15.708-7.242-26.928s2.414-20.196 7.242-26.928c4.828-6.732 11.594-10.098 20.298-10.098 8.704 0 15.47 3.366 20.298 10.098 4.828 6.732 7.242 15.708 7.242 26.928s-2.414 20.196-7.242 26.928zm-33.66-6.426c3.128 4.828 7.582 7.242 13.362 7.242s10.234-2.414 13.362-7.242c3.196-4.828 4.794-11.662 4.794-20.502 0-8.84-1.598-15.674-4.794-20.502-3.128-4.896-7.582-7.344-13.362-7.344s-10.234 2.414-13.362 7.242c-3.128 4.828-4.692 11.696-4.692 20.604 0 8.84 1.564 15.674 4.692 20.502zm102.651-7.242v8.874h-8.67V224h-9.486v-13.566h-36.414v-8.874l25.602-48.96h10.2l-25.602 48.96h26.214v-20.196h9.486v20.196h8.67z" fill="#0E67CE"/></svg>