<svg width="19" height="15" viewBox="0 0 19 15" fill="none" xmlns="http://www.w3.org/2000/svg"><path d="M6.714.76c-1.164.886-2.126 2.088-2.887 3.607C3.11 5.844 2.775 7.363 2.82 8.924c.447-.253.94-.38 1.477-.38 1.03 0 1.835.296 2.417.886.626.549.94 1.308.94 2.279 0 .97-.336 1.772-1.007 2.405-.627.59-1.5.886-2.619.886-1.253 0-2.238-.422-2.954-1.266C.358 12.848 0 11.624 0 10.064 0 8.08.537 6.138 1.611 4.24 2.686 2.343 4.051.929 5.707 0l1.007.76zm11.346 0c-1.164.886-2.126 2.088-2.887 3.607-.716 1.477-1.052 2.996-1.007 4.557.448-.253.94-.38 1.477-.38 1.03 0 1.835.296 2.417.886.627.549.94 1.308.94 2.279 0 .97-.336 1.772-1.007 2.405-.627.59-1.5.886-2.618.886-1.254 0-2.238-.422-2.954-1.266-.717-.886-1.075-2.11-1.075-3.67 0-1.984.537-3.925 1.612-5.824C14.032 2.343 15.397.929 17.053 0l1.007.76z" fill="#E1E1E1"/></svg>