<svg width="137" height="136" viewBox="0 0 137 136" fill="none" xmlns="http://www.w3.org/2000/svg"><mask id="mask0" maskUnits="userSpaceOnUse" x="0" y="0" width="137" height="136"><path fill="#C4C4C4" d="M0 0h137v136H0z"/></mask><g opacity=".1" fill="#0E67CE" mask="url(#mask0)"><path d="M8.732 363.536a6.732 6.732 0 110 13.464 6.732 6.732 0 010-13.464zm0-40.393a6.732 6.732 0 110 13.464 6.732 6.732 0 010-13.464zm0-40.393a6.732 6.732 0 110 13.464 6.732 6.732 0 010-13.464zm0-40.393a6.732 6.732 0 110 13.464 6.732 6.732 0 010-13.464zm0-40.393a6.732 6.732 0 110 13.465 6.732 6.732 0 010-13.465zm0-40.393a6.733 6.733 0 11-.001 13.466 6.733 6.733 0 01.001-13.466zm0-40.392a6.732 6.732 0 110 13.464 6.732 6.732 0 010-13.464zm0-40.393a6.732 6.732 0 110 13.464 6.732 6.732 0 010-13.464zm0-40.393a6.732 6.732 0 110 13.464 6.732 6.732 0 010-13.464zM8.732 0a6.732 6.732 0 110 13.464A6.732 6.732 0 018.732 0zm40.393 363.536a6.732 6.732 0 110 13.464 6.732 6.732 0 010-13.464zm0-40.393a6.732 6.732 0 110 13.464 6.732 6.732 0 010-13.464zm0-40.393a6.732 6.732 0 110 13.464 6.732 6.732 0 010-13.464zm0-40.393a6.732 6.732 0 110 13.464 6.732 6.732 0 010-13.464zm0-40.393a6.733 6.733 0 11-.002 13.464 6.733 6.733 0 01.002-13.464zm0-40.393a6.733 6.733 0 11-.002 13.466 6.733 6.733 0 01.002-13.466zm0-40.392a6.732 6.732 0 110 13.464 6.732 6.732 0 010-13.464zm0-40.393a6.732 6.732 0 110 13.464 6.732 6.732 0 010-13.464zm0-40.393a6.732 6.732 0 110 13.464 6.732 6.732 0 010-13.464zm0-40.393a6.732 6.732 0 110 13.464 6.732 6.732 0 010-13.464zm40.393 363.536a6.732 6.732 0 110 13.464 6.732 6.732 0 010-13.464zm0-40.393a6.732 6.732 0 110 13.464 6.732 6.732 0 010-13.464zm0-40.393a6.732 6.732 0 110 13.464 6.732 6.732 0 010-13.464zm0-40.393a6.732 6.732 0 110 13.464 6.732 6.732 0 010-13.464zm0-40.393a6.732 6.732 0 110 13.464 6.732 6.732 0 010-13.464zm0-40.393a6.733 6.733 0 11-.002 13.466 6.733 6.733 0 01.002-13.466zm0-40.392a6.732 6.732 0 110 13.464 6.732 6.732 0 010-13.464zm0-40.393a6.732 6.732 0 110 13.464 6.732 6.732 0 010-13.464zm0-40.393a6.732 6.732 0 110 13.464 6.732 6.732 0 010-13.464zm0-40.393a6.732 6.732 0 110 13.464 6.732 6.732 0 010-13.464zm40.393 363.536a6.732 6.732 0 110 13.464 6.732 6.732 0 010-13.464zm0-40.393a6.732 6.732 0 110 13.464 6.732 6.732 0 010-13.464zm0-40.393a6.732 6.732 0 110 13.464 6.732 6.732 0 010-13.464zm0-40.393a6.732 6.732 0 110 13.464 6.732 6.732 0 010-13.464zm0-40.393a6.733 6.733 0 11-.002 13.464 6.733 6.733 0 01.002-13.464zm0-40.393a6.733 6.733 0 11-.002 13.466 6.733 6.733 0 01.002-13.466zm0-40.392a6.732 6.732 0 110 13.464 6.732 6.732 0 010-13.464zm0-40.393a6.732 6.732 0 110 13.464 6.732 6.732 0 010-13.464zm0-40.393a6.732 6.732 0 110 13.464 6.732 6.732 0 010-13.464zm0-40.393a6.732 6.732 0 110 13.464 6.732 6.732 0 010-13.464zm40.393 363.536a6.732 6.732 0 110 13.464 6.733 6.733 0 110-13.464zm0-40.393a6.732 6.732 0 110 13.464 6.733 6.733 0 110-13.464zm0-40.393a6.732 6.732 0 110 13.464 6.733 6.733 0 110-13.464zm0-40.393a6.732 6.732 0 110 13.464 6.733 6.733 0 110-13.464zm0-40.393a6.733 6.733 0 11-.002 13.464 6.733 6.733 0 01.002-13.464zm0-40.393a6.733 6.733 0 11-.002 13.466 6.733 6.733 0 01.002-13.466zm0-40.392a6.732 6.732 0 110 13.464 6.733 6.733 0 110-13.464zm0-40.393a6.732 6.732 0 110 13.464 6.732 6.732 0 010-13.464zm0-40.393a6.732 6.732 0 110 13.464 6.732 6.732 0 110-13.464zm0-40.393a6.732 6.732 0 010 13.464 6.732 6.732 0 110-13.464zm40.392 363.536a6.732 6.732 0 11.002 13.464 6.732 6.732 0 01-.002-13.464zm0-40.393a6.733 6.733 0 110 13.466 6.733 6.733 0 010-13.466zm0-40.393a6.733 6.733 0 110 13.466 6.733 6.733 0 010-13.466zm0-40.393a6.733 6.733 0 110 13.466 6.733 6.733 0 010-13.466zm0-40.393a6.733 6.733 0 110 13.466 6.733 6.733 0 010-13.466zm0-40.393a6.734 6.734 0 010 13.465 6.733 6.733 0 010-13.465zm0-40.392a6.733 6.733 0 110 13.466 6.733 6.733 0 010-13.466zm0-40.393a6.733 6.733 0 110 13.466 6.733 6.733 0 010-13.466zm0-40.393a6.733 6.733 0 110 13.466 6.733 6.733 0 010-13.466zm0-40.393a6.733 6.733 0 110 13.466 6.733 6.733 0 010-13.466zm40.393 363.536a6.732 6.732 0 110 13.464 6.732 6.732 0 010-13.464zm0-40.393a6.732 6.732 0 110 13.464 6.732 6.732 0 010-13.464zm0-40.393a6.732 6.732 0 110 13.464 6.732 6.732 0 010-13.464zm0-40.393a6.732 6.732 0 110 13.464 6.732 6.732 0 010-13.464zm0-40.393a6.733 6.733 0 11-.002 13.464 6.733 6.733 0 01.002-13.464zm0-40.393a6.733 6.733 0 11-.002 13.466 6.733 6.733 0 01.002-13.466zm0-40.392a6.732 6.732 0 110 13.464 6.732 6.732 0 010-13.464zm0-40.393a6.732 6.732 0 110 13.464 6.732 6.732 0 010-13.464zm0-40.393a6.732 6.732 0 110 13.464 6.732 6.732 0 010-13.464zm0-40.393a6.732 6.732 0 110 13.464 6.732 6.732 0 010-13.464zm40.393 363.536a6.732 6.732 0 110 13.464 6.732 6.732 0 010-13.464zm0-40.393a6.732 6.732 0 110 13.464 6.732 6.732 0 010-13.464zm0-40.393a6.732 6.732 0 110 13.464 6.732 6.732 0 010-13.464zm0-40.393a6.732 6.732 0 110 13.464 6.732 6.732 0 010-13.464zm0-40.393a6.733 6.733 0 11-.002 13.464 6.733 6.733 0 01.002-13.464zm0-40.393a6.733 6.733 0 11-.002 13.466 6.733 6.733 0 01.002-13.466zm0-40.392a6.732 6.732 0 110 13.464 6.732 6.732 0 010-13.464zm0-40.393a6.732 6.732 0 110 13.464 6.732 6.732 0 010-13.464zm0-40.393a6.732 6.732 0 110 13.464 6.732 6.732 0 010-13.464zm0-40.393a6.732 6.732 0 110 13.464 6.732 6.732 0 010-13.464zm40.393 363.536a6.732 6.732 0 110 13.464 6.732 6.732 0 010-13.464zm0-40.393a6.732 6.732 0 110 13.464 6.732 6.732 0 010-13.464zm0-40.393a6.732 6.732 0 110 13.464 6.732 6.732 0 010-13.464zm0-40.393a6.732 6.732 0 110 13.464 6.732 6.732 0 010-13.464zm0-40.393a6.733 6.733 0 11-.002 13.464 6.733 6.733 0 01.002-13.464zm0-40.393a6.732 6.732 0 110 13.464 6.732 6.732 0 010-13.464zm0-40.392a6.732 6.732 0 110 13.464 6.732 6.732 0 010-13.464zm0-40.393a6.732 6.732 0 110 13.464 6.732 6.732 0 010-13.464zm0-40.393a6.732 6.732 0 110 13.464 6.732 6.732 0 010-13.464zm0-40.393a6.732 6.732 0 110 13.464 6.732 6.732 0 010-13.464zm40.393 363.536a6.732 6.732 0 110 13.464 6.732 6.732 0 010-13.464zm0-40.393a6.732 6.732 0 110 13.464 6.732 6.732 0 010-13.464zm0-40.393a6.732 6.732 0 110 13.464 6.732 6.732 0 010-13.464zm0-40.393a6.732 6.732 0 110 13.464 6.732 6.732 0 010-13.464zm0-40.393a6.733 6.733 0 11-.002 13.464 6.733 6.733 0 01.002-13.464zm0-40.393a6.732 6.732 0 110 13.464 6.732 6.732 0 010-13.464zm0-40.392a6.732 6.732 0 110 13.464 6.732 6.732 0 010-13.464zm0-40.393a6.732 6.732 0 110 13.464 6.732 6.732 0 010-13.464zm0-40.393a6.732 6.732 0 110 13.464 6.732 6.732 0 010-13.464zm0-40.393a6.732 6.732 0 110 13.464 6.732 6.732 0 010-13.464z"/></g></svg>