<svg width="15" height="13" viewBox="0 0 15 13" fill="none" xmlns="http://www.w3.org/2000/svg"><path d="M14.793 6.04l-1.668-1.368V2.539a.176.176 0 00-.164-.164h-.547c-.11 0-.164.082-.164.164v1.422L8.422.844a1.018 1.018 0 00-.547-.192c-.191 0-.438.082-.574.192L.957 6.039c-.055.027-.082.11-.082.164 0 .027 0 .11.027.137l.274.328a.295.295 0 00.191.082.462.462 0 00.137-.055l1.121-.902v6.644c0 .247.191.438.438.438h3.5A.45.45 0 007 12.437v-3.5h1.75v3.5c0 .247.191.438.438.438h3.5a.45.45 0 00.437-.438V5.793l1.094.902a.46.46 0 00.136.055.248.248 0 00.192-.082l.273-.328c.028-.027.028-.11.028-.137a.294.294 0 00-.055-.164zM12.223 12l-2.625.027V8.5c0-.219-.192-.438-.41-.438H6.534a.45.45 0 00-.437.438V12H3.5V5.082L7.875 1.5l4.375 3.582L12.223 12z" fill="#888"/></svg>