<svg width="173" height="34" viewBox="0 0 173 34" fill="none" xmlns="http://www.w3.org/2000/svg"><g clip-path="url(#clip0)"><path d="M173 32.808h-5.36V19.673h-14.057v13.135h-5.404V2.057h5.404V14.62h14.057V2.057H173v30.751zm-32.245-7.028l2.065 4.04c-.967 1.026-2.35 1.86-4.152 2.505a16.76 16.76 0 01-5.688.967c-4.686 0-8.508-1.45-11.467-4.35-2.928-2.899-4.392-6.736-4.392-11.51 0-4.568 1.39-8.361 4.173-11.377 2.753-2.988 6.605-4.482 11.554-4.482 3.925 0 7.044 1.04 9.357 3.12l-2.416 3.997c-2.08-1.376-4.393-2.064-6.941-2.064-2.929 0-5.33.981-7.205 2.944-1.874 1.962-2.812 4.582-2.812 7.863 0 3.222.981 5.828 2.944 7.82 1.992 1.991 4.555 2.987 7.688 2.987 2.695 0 5.125-.82 7.292-2.46zm-28.379 7.028H94.144V2.057h17.792v5.052H99.547v7.643h11.071v5.053h-11.07v7.951h12.828v5.052zM80.658 2.057h5.36V20.07c0 4.423-1.158 7.732-3.471 9.929-2.343 2.196-5.258 3.295-8.742 3.295-3.954 0-7.132-1.157-9.534-3.471-2.371-2.314-3.558-5.667-3.558-10.06V2.058h5.404V18.62c0 3.046.651 5.41 1.955 7.094 1.303 1.685 3.214 2.527 5.733 2.527 4.568 0 6.853-3.09 6.853-9.27V2.058zM9.972 7.11H0V2.056h25.349v5.052h-9.973v25.699H9.972V7.109z" fill="#211A52"/><path d="M50.47 26.356a15.686 15.686 0 01-3.817 2.206l2.148 3.72h5.09l-3.421-5.926zm-22.668 5.926h4.434a5.78 5.78 0 011.678-3.582 5.804 5.804 0 014.106-1.702h2.771a12.96 12.96 0 009.192-3.807A12.962 12.962 0 0053.79 14c0-3.46-1.363-6.744-3.812-9.187a12.977 12.977 0 00-18.292-.081 12.951 12.951 0 00-3.881 9.035l-.003 18.515zm6.973-24.41a8.558 8.558 0 016.017-2.451c2.284 0 4.453.895 6.065 2.513a8.574 8.574 0 01-.001 12.13 8.554 8.554 0 01-6.064 2.513H38.02c-1.767 0-3.493.452-5.031 1.322l-.787.445.001-10.502a8.562 8.562 0 012.572-5.97z" fill="#0E67CE"/><path d="M45.666 12.681a5.027 5.027 0 01-.182 3.181l-.038-.151a8.049 8.049 0 00-7.415-5.94 5.05 5.05 0 017.635 2.911z" fill="#0E67CE"/></g><defs><clipPath id="clip0"><path fill="#fff" transform="translate(0 .067)" d="M0 0h173v33.933H0z"/></clipPath></defs></svg>