<svg width="45" height="45" viewBox="0 0 45 45" fill="none" xmlns="http://www.w3.org/2000/svg"><path d="M35.493 0H9.507A9.507 9.507 0 000 9.507v25.986A9.507 9.507 0 009.507 45h25.986A9.507 9.507 0 0045 35.493V9.507A9.507 9.507 0 0035.493 0z" fill="#0E67CE"/><path d="M30.66 30.09l3.565 6.176h-5.37l-2.223-3.849a12.895 12.895 0 004.028-2.326z" fill="#FEFEFE"/><path fill-rule="evenodd" clip-rule="evenodd" d="M11.567 35.483l3.146.001a5.258 5.258 0 015.221-4.498h2.36c2.857 0 5.571-1.125 7.591-3.144a10.7 10.7 0 003.144-7.591c0-2.858-1.124-5.572-3.144-7.592a10.702 10.702 0 00-7.59-3.144 10.702 10.702 0 00-7.52 3.082 10.693 10.693 0 00-3.206 7.455l-.002 15.431zm5.37-20.686a7.616 7.616 0 015.357-2.184c2.032 0 3.964.8 5.4 2.237a7.617 7.617 0 012.238 5.4 7.614 7.614 0 01-2.237 5.4 7.616 7.616 0 01-5.4 2.237h-2.36c-1.447 0-2.86.371-4.118 1.087l-1.169.666.001-9.53a7.623 7.623 0 012.289-5.313z" fill="#FEFEFE"/><path d="M26.445 19.129a4.278 4.278 0 01-.155 2.708l-.033-.129a6.853 6.853 0 00-6.314-5.058 4.3 4.3 0 016.501 2.479z" fill="#FEFEFE"/></svg>