<svg width="112" height="112" viewBox="0 0 112 112" fill="none" xmlns="http://www.w3.org/2000/svg"><rect opacity=".4" width="112" height="112" rx="56" fill="#E1E1E1"/><circle cx="56" cy="56" r="44" fill="#E1E1E1"/><path d="M73.063 54.75H68.25v-4.813a.47.47 0 00-.438-.437h-.874a.431.431 0 00-.438.438v4.812h-4.813a.431.431 0 00-.437.438v.874c0 .274.164.438.438.438H66.5v4.813c0 .273.164.437.438.437h.874a.431.431 0 00.438-.438V56.5h4.813a.431.431 0 00.437-.438v-.874a.47.47 0 00-.438-.438zm-17.446 3.5c-1.586 0-2.297.875-4.867.875-2.625 0-3.336-.875-4.922-.875-4.047 0-7.328 3.336-7.328 7.383v2.242a2.591 2.591 0 002.625 2.625h19.25A2.626 2.626 0 0063 67.875v-2.242c0-4.047-3.336-7.383-7.383-7.383zm5.633 9.625c0 .492-.438.875-.875.875h-19.25a.864.864 0 01-.875-.875v-2.242c0-3.117 2.46-5.633 5.578-5.633 1.094 0 2.133.875 4.922.875 2.734 0 3.828-.875 4.867-.875a5.625 5.625 0 015.633 5.633v2.242zM50.75 56.5c3.828 0 7-3.117 7-7 0-3.828-3.172-7-7-7-3.883 0-7 3.172-7 7 0 3.883 3.117 7 7 7zm0-12.25c2.844 0 5.25 2.406 5.25 5.25 0 2.898-2.406 5.25-5.25 5.25a5.251 5.251 0 01-5.25-5.25c0-2.844 2.352-5.25 5.25-5.25z" fill="#888"/></svg>