<svg width="20" height="20" viewBox="0 0 20 20" fill="none" xmlns="http://www.w3.org/2000/svg"><g id="icon/action/view_agenda_24px"><path id="icon/action/view_agenda_24px_2" fill-rule="evenodd" clip-rule="evenodd" d="M17.084 2.5H2.917a.836.836 0 00-.833.833v5c0 .459.374.834.833.834h14.166a.836.836 0 00.834-.834v-5a.836.836 0 00-.834-.833zm-.834 5V4.167H3.75V7.5h12.5zm0 8.333V12.5H3.75v3.333h12.5zm-13.333-5h14.167c.458 0 .833.375.833.834v5a.836.836 0 01-.834.833H2.918a.836.836 0 01-.833-.833v-5c0-.459.374-.834.833-.834z" fill="#888"/></g></svg>