<svg width="378" height="378" viewBox="0 0 378 378" fill="none" xmlns="http://www.w3.org/2000/svg">
<path d="M13.5 6.75C13.5 10.4779 10.4779 13.5 6.75 13.5C3.02208 13.5 0 10.4779 0 6.75C0 3.02208 3.02208 0 6.75 0C10.4779 0 13.5 3.02208 13.5 6.75Z" fill="#003E9C"/>
<path d="M54 6.75C54 10.4779 50.9779 13.5 47.25 13.5C43.5221 13.5 40.5 10.4779 40.5 6.75C40.5 3.02208 43.5221 0 47.25 0C50.9779 0 54 3.02208 54 6.75Z" fill="#003E9C"/>
<path d="M94.5 6.75C94.5 10.4779 91.4779 13.5 87.75 13.5C84.0221 13.5 81 10.4779 81 6.75C81 3.02208 84.0221 0 87.75 0C91.4779 0 94.5 3.02208 94.5 6.75Z" fill="#003E9C"/>
<path d="M135 6.75C135 10.4779 131.978 13.5 128.25 13.5C124.522 13.5 121.5 10.4779 121.5 6.75C121.5 3.02208 124.522 0 128.25 0C131.978 0 135 3.02208 135 6.75Z" fill="#003E9C"/>
<path d="M175.5 6.75C175.5 10.4779 172.478 13.5 168.75 13.5C165.022 13.5 162 10.4779 162 6.75C162 3.02208 165.022 0 168.75 0C172.478 0 175.5 3.02208 175.5 6.75Z" fill="#003E9C"/>
<path d="M216 6.75C216 10.4779 212.978 13.5 209.25 13.5C205.522 13.5 202.5 10.4779 202.5 6.75C202.5 3.02208 205.522 0 209.25 0C212.978 0 216 3.02208 216 6.75Z" fill="#003E9C"/>
<path d="M256.5 6.75C256.5 10.4779 253.478 13.5 249.75 13.5C246.022 13.5 243 10.4779 243 6.75C243 3.02208 246.022 0 249.75 0C253.478 0 256.5 3.02208 256.5 6.75Z" fill="#003E9C"/>
<path d="M297 6.75C297 10.4779 293.978 13.5 290.25 13.5C286.522 13.5 283.5 10.4779 283.5 6.75C283.5 3.02208 286.522 0 290.25 0C293.978 0 297 3.02208 297 6.75Z" fill="#003E9C"/>
<path d="M337.5 6.75C337.5 10.4779 334.478 13.5 330.75 13.5C327.022 13.5 324 10.4779 324 6.75C324 3.02208 327.022 0 330.75 0C334.478 0 337.5 3.02208 337.5 6.75Z" fill="#003E9C"/>
<path d="M378 6.75C378 10.4779 374.978 13.5 371.25 13.5C367.522 13.5 364.5 10.4779 364.5 6.75C364.5 3.02208 367.522 0 371.25 0C374.978 0 378 3.02208 378 6.75Z" fill="#003E9C"/>
<path d="M13.5 47.25C13.5 50.9779 10.4779 54 6.75 54C3.02208 54 0 50.9779 0 47.25C0 43.5221 3.02208 40.5 6.75 40.5C10.4779 40.5 13.5 43.5221 13.5 47.25Z" fill="#003E9C"/>
<path d="M54 47.25C54 50.9779 50.9779 54 47.25 54C43.5221 54 40.5 50.9779 40.5 47.25C40.5 43.5221 43.5221 40.5 47.25 40.5C50.9779 40.5 54 43.5221 54 47.25Z" fill="#003E9C"/>
<path d="M94.5 47.25C94.5 50.9779 91.4779 54 87.75 54C84.0221 54 81 50.9779 81 47.25C81 43.5221 84.0221 40.5 87.75 40.5C91.4779 40.5 94.5 43.5221 94.5 47.25Z" fill="#003E9C"/>
<path d="M135 47.25C135 50.9779 131.978 54 128.25 54C124.522 54 121.5 50.9779 121.5 47.25C121.5 43.5221 124.522 40.5 128.25 40.5C131.978 40.5 135 43.5221 135 47.25Z" fill="#003E9C"/>
<path d="M175.5 47.25C175.5 50.9779 172.478 54 168.75 54C165.022 54 162 50.9779 162 47.25C162 43.5221 165.022 40.5 168.75 40.5C172.478 40.5 175.5 43.5221 175.5 47.25Z" fill="#003E9C"/>
<path d="M216 47.25C216 50.9779 212.978 54 209.25 54C205.522 54 202.5 50.9779 202.5 47.25C202.5 43.5221 205.522 40.5 209.25 40.5C212.978 40.5 216 43.5221 216 47.25Z" fill="#003E9C"/>
<path d="M256.5 47.25C256.5 50.9779 253.478 54 249.75 54C246.022 54 243 50.9779 243 47.25C243 43.5221 246.022 40.5 249.75 40.5C253.478 40.5 256.5 43.5221 256.5 47.25Z" fill="#003E9C"/>
<path d="M297 47.25C297 50.9779 293.978 54 290.25 54C286.522 54 283.5 50.9779 283.5 47.25C283.5 43.5221 286.522 40.5 290.25 40.5C293.978 40.5 297 43.5221 297 47.25Z" fill="#003E9C"/>
<path d="M337.5 47.25C337.5 50.9779 334.478 54 330.75 54C327.022 54 324 50.9779 324 47.25C324 43.5221 327.022 40.5 330.75 40.5C334.478 40.5 337.5 43.5221 337.5 47.25Z" fill="#003E9C"/>
<path d="M378 47.25C378 50.9779 374.978 54 371.25 54C367.522 54 364.5 50.9779 364.5 47.25C364.5 43.5221 367.522 40.5 371.25 40.5C374.978 40.5 378 43.5221 378 47.25Z" fill="#003E9C"/>
<path d="M13.5 87.75C13.5 91.4779 10.4779 94.5 6.75 94.5C3.02208 94.5 0 91.4779 0 87.75C0 84.0221 3.02208 81 6.75 81C10.4779 81 13.5 84.0221 13.5 87.75Z" fill="#003E9C"/>
<path d="M54 87.75C54 91.4779 50.9779 94.5 47.25 94.5C43.5221 94.5 40.5 91.4779 40.5 87.75C40.5 84.0221 43.5221 81 47.25 81C50.9779 81 54 84.0221 54 87.75Z" fill="#003E9C"/>
<path d="M94.5 87.75C94.5 91.4779 91.4779 94.5 87.75 94.5C84.0221 94.5 81 91.4779 81 87.75C81 84.0221 84.0221 81 87.75 81C91.4779 81 94.5 84.0221 94.5 87.75Z" fill="#003E9C"/>
<path d="M135 87.75C135 91.4779 131.978 94.5 128.25 94.5C124.522 94.5 121.5 91.4779 121.5 87.75C121.5 84.0221 124.522 81 128.25 81C131.978 81 135 84.0221 135 87.75Z" fill="#003E9C"/>
<path d="M175.5 87.75C175.5 91.4779 172.478 94.5 168.75 94.5C165.022 94.5 162 91.4779 162 87.75C162 84.0221 165.022 81 168.75 81C172.478 81 175.5 84.0221 175.5 87.75Z" fill="#003E9C"/>
<path d="M216 87.75C216 91.4779 212.978 94.5 209.25 94.5C205.522 94.5 202.5 91.4779 202.5 87.75C202.5 84.0221 205.522 81 209.25 81C212.978 81 216 84.0221 216 87.75Z" fill="#003E9C"/>
<path d="M256.5 87.75C256.5 91.4779 253.478 94.5 249.75 94.5C246.022 94.5 243 91.4779 243 87.75C243 84.0221 246.022 81 249.75 81C253.478 81 256.5 84.0221 256.5 87.75Z" fill="#003E9C"/>
<path d="M297 87.75C297 91.4779 293.978 94.5 290.25 94.5C286.522 94.5 283.5 91.4779 283.5 87.75C283.5 84.0221 286.522 81 290.25 81C293.978 81 297 84.0221 297 87.75Z" fill="#003E9C"/>
<path d="M337.5 87.75C337.5 91.4779 334.478 94.5 330.75 94.5C327.022 94.5 324 91.4779 324 87.75C324 84.0221 327.022 81 330.75 81C334.478 81 337.5 84.0221 337.5 87.75Z" fill="#003E9C"/>
<path d="M378 87.75C378 91.4779 374.978 94.5 371.25 94.5C367.522 94.5 364.5 91.4779 364.5 87.75C364.5 84.0221 367.522 81 371.25 81C374.978 81 378 84.0221 378 87.75Z" fill="#003E9C"/>
<path d="M13.5 128.25C13.5 131.978 10.4779 135 6.75 135C3.02208 135 0 131.978 0 128.25C0 124.522 3.02208 121.5 6.75 121.5C10.4779 121.5 13.5 124.522 13.5 128.25Z" fill="#003E9C"/>
<path d="M54 128.25C54 131.978 50.9779 135 47.25 135C43.5221 135 40.5 131.978 40.5 128.25C40.5 124.522 43.5221 121.5 47.25 121.5C50.9779 121.5 54 124.522 54 128.25Z" fill="#003E9C"/>
<path d="M94.5 128.25C94.5 131.978 91.4779 135 87.75 135C84.0221 135 81 131.978 81 128.25C81 124.522 84.0221 121.5 87.75 121.5C91.4779 121.5 94.5 124.522 94.5 128.25Z" fill="#003E9C"/>
<path d="M135 128.25C135 131.978 131.978 135 128.25 135C124.522 135 121.5 131.978 121.5 128.25C121.5 124.522 124.522 121.5 128.25 121.5C131.978 121.5 135 124.522 135 128.25Z" fill="#003E9C"/>
<path d="M175.5 128.25C175.5 131.978 172.478 135 168.75 135C165.022 135 162 131.978 162 128.25C162 124.522 165.022 121.5 168.75 121.5C172.478 121.5 175.5 124.522 175.5 128.25Z" fill="#003E9C"/>
<path d="M216 128.25C216 131.978 212.978 135 209.25 135C205.522 135 202.5 131.978 202.5 128.25C202.5 124.522 205.522 121.5 209.25 121.5C212.978 121.5 216 124.522 216 128.25Z" fill="#003E9C"/>
<path d="M256.5 128.25C256.5 131.978 253.478 135 249.75 135C246.022 135 243 131.978 243 128.25C243 124.522 246.022 121.5 249.75 121.5C253.478 121.5 256.5 124.522 256.5 128.25Z" fill="#003E9C"/>
<path d="M297 128.25C297 131.978 293.978 135 290.25 135C286.522 135 283.5 131.978 283.5 128.25C283.5 124.522 286.522 121.5 290.25 121.5C293.978 121.5 297 124.522 297 128.25Z" fill="#003E9C"/>
<path d="M337.5 128.25C337.5 131.978 334.478 135 330.75 135C327.022 135 324 131.978 324 128.25C324 124.522 327.022 121.5 330.75 121.5C334.478 121.5 337.5 124.522 337.5 128.25Z" fill="#003E9C"/>
<path d="M378 128.25C378 131.978 374.978 135 371.25 135C367.522 135 364.5 131.978 364.5 128.25C364.5 124.522 367.522 121.5 371.25 121.5C374.978 121.5 378 124.522 378 128.25Z" fill="#003E9C"/>
<path d="M13.5 168.75C13.5 172.478 10.4779 175.5 6.75 175.5C3.02208 175.5 0 172.478 0 168.75C0 165.022 3.02208 162 6.75 162C10.4779 162 13.5 165.022 13.5 168.75Z" fill="#003E9C"/>
<path d="M54 168.75C54 172.478 50.9779 175.5 47.25 175.5C43.5221 175.5 40.5 172.478 40.5 168.75C40.5 165.022 43.5221 162 47.25 162C50.9779 162 54 165.022 54 168.75Z" fill="#003E9C"/>
<path d="M94.5 168.75C94.5 172.478 91.4779 175.5 87.75 175.5C84.0221 175.5 81 172.478 81 168.75C81 165.022 84.0221 162 87.75 162C91.4779 162 94.5 165.022 94.5 168.75Z" fill="#003E9C"/>
<path d="M135 168.75C135 172.478 131.978 175.5 128.25 175.5C124.522 175.5 121.5 172.478 121.5 168.75C121.5 165.022 124.522 162 128.25 162C131.978 162 135 165.022 135 168.75Z" fill="#003E9C"/>
<path d="M175.5 168.75C175.5 172.478 172.478 175.5 168.75 175.5C165.022 175.5 162 172.478 162 168.75C162 165.022 165.022 162 168.75 162C172.478 162 175.5 165.022 175.5 168.75Z" fill="#003E9C"/>
<path d="M216 168.75C216 172.478 212.978 175.5 209.25 175.5C205.522 175.5 202.5 172.478 202.5 168.75C202.5 165.022 205.522 162 209.25 162C212.978 162 216 165.022 216 168.75Z" fill="#003E9C"/>
<path d="M256.5 168.75C256.5 172.478 253.478 175.5 249.75 175.5C246.022 175.5 243 172.478 243 168.75C243 165.022 246.022 162 249.75 162C253.478 162 256.5 165.022 256.5 168.75Z" fill="#003E9C"/>
<path d="M297 168.75C297 172.478 293.978 175.5 290.25 175.5C286.522 175.5 283.5 172.478 283.5 168.75C283.5 165.022 286.522 162 290.25 162C293.978 162 297 165.022 297 168.75Z" fill="#003E9C"/>
<path d="M337.5 168.75C337.5 172.478 334.478 175.5 330.75 175.5C327.022 175.5 324 172.478 324 168.75C324 165.022 327.022 162 330.75 162C334.478 162 337.5 165.022 337.5 168.75Z" fill="#003E9C"/>
<path d="M378 168.75C378 172.478 374.978 175.5 371.25 175.5C367.522 175.5 364.5 172.478 364.5 168.75C364.5 165.022 367.522 162 371.25 162C374.978 162 378 165.022 378 168.75Z" fill="#003E9C"/>
<path d="M13.5 209.25C13.5 212.978 10.4779 216 6.75 216C3.02208 216 0 212.978 0 209.25C0 205.522 3.02208 202.5 6.75 202.5C10.4779 202.5 13.5 205.522 13.5 209.25Z" fill="#003E9C"/>
<path d="M54 209.25C54 212.978 50.9779 216 47.25 216C43.5221 216 40.5 212.978 40.5 209.25C40.5 205.522 43.5221 202.5 47.25 202.5C50.9779 202.5 54 205.522 54 209.25Z" fill="#003E9C"/>
<path d="M94.5 209.25C94.5 212.978 91.4779 216 87.75 216C84.0221 216 81 212.978 81 209.25C81 205.522 84.0221 202.5 87.75 202.5C91.4779 202.5 94.5 205.522 94.5 209.25Z" fill="#003E9C"/>
<path d="M135 209.25C135 212.978 131.978 216 128.25 216C124.522 216 121.5 212.978 121.5 209.25C121.5 205.522 124.522 202.5 128.25 202.5C131.978 202.5 135 205.522 135 209.25Z" fill="#003E9C"/>
<path d="M175.5 209.25C175.5 212.978 172.478 216 168.75 216C165.022 216 162 212.978 162 209.25C162 205.522 165.022 202.5 168.75 202.5C172.478 202.5 175.5 205.522 175.5 209.25Z" fill="#003E9C"/>
<path d="M216 209.25C216 212.978 212.978 216 209.25 216C205.522 216 202.5 212.978 202.5 209.25C202.5 205.522 205.522 202.5 209.25 202.5C212.978 202.5 216 205.522 216 209.25Z" fill="#003E9C"/>
<path d="M256.5 209.25C256.5 212.978 253.478 216 249.75 216C246.022 216 243 212.978 243 209.25C243 205.522 246.022 202.5 249.75 202.5C253.478 202.5 256.5 205.522 256.5 209.25Z" fill="#003E9C"/>
<path d="M297 209.25C297 212.978 293.978 216 290.25 216C286.522 216 283.5 212.978 283.5 209.25C283.5 205.522 286.522 202.5 290.25 202.5C293.978 202.5 297 205.522 297 209.25Z" fill="#003E9C"/>
<path d="M337.5 209.25C337.5 212.978 334.478 216 330.75 216C327.022 216 324 212.978 324 209.25C324 205.522 327.022 202.5 330.75 202.5C334.478 202.5 337.5 205.522 337.5 209.25Z" fill="#003E9C"/>
<path d="M378 209.25C378 212.978 374.978 216 371.25 216C367.522 216 364.5 212.978 364.5 209.25C364.5 205.522 367.522 202.5 371.25 202.5C374.978 202.5 378 205.522 378 209.25Z" fill="#003E9C"/>
<path d="M13.5 249.75C13.5 253.478 10.4779 256.5 6.75 256.5C3.02208 256.5 0 253.478 0 249.75C0 246.022 3.02208 243 6.75 243C10.4779 243 13.5 246.022 13.5 249.75Z" fill="#003E9C"/>
<path d="M54 249.75C54 253.478 50.9779 256.5 47.25 256.5C43.5221 256.5 40.5 253.478 40.5 249.75C40.5 246.022 43.5221 243 47.25 243C50.9779 243 54 246.022 54 249.75Z" fill="#003E9C"/>
<path d="M94.5 249.75C94.5 253.478 91.4779 256.5 87.75 256.5C84.0221 256.5 81 253.478 81 249.75C81 246.022 84.0221 243 87.75 243C91.4779 243 94.5 246.022 94.5 249.75Z" fill="#003E9C"/>
<path d="M135 249.75C135 253.478 131.978 256.5 128.25 256.5C124.522 256.5 121.5 253.478 121.5 249.75C121.5 246.022 124.522 243 128.25 243C131.978 243 135 246.022 135 249.75Z" fill="#003E9C"/>
<path d="M175.5 249.75C175.5 253.478 172.478 256.5 168.75 256.5C165.022 256.5 162 253.478 162 249.75C162 246.022 165.022 243 168.75 243C172.478 243 175.5 246.022 175.5 249.75Z" fill="#003E9C"/>
<path d="M216 249.75C216 253.478 212.978 256.5 209.25 256.5C205.522 256.5 202.5 253.478 202.5 249.75C202.5 246.022 205.522 243 209.25 243C212.978 243 216 246.022 216 249.75Z" fill="#003E9C"/>
<path d="M256.5 249.75C256.5 253.478 253.478 256.5 249.75 256.5C246.022 256.5 243 253.478 243 249.75C243 246.022 246.022 243 249.75 243C253.478 243 256.5 246.022 256.5 249.75Z" fill="#003E9C"/>
<path d="M297 249.75C297 253.478 293.978 256.5 290.25 256.5C286.522 256.5 283.5 253.478 283.5 249.75C283.5 246.022 286.522 243 290.25 243C293.978 243 297 246.022 297 249.75Z" fill="#003E9C"/>
<path d="M337.5 249.75C337.5 253.478 334.478 256.5 330.75 256.5C327.022 256.5 324 253.478 324 249.75C324 246.022 327.022 243 330.75 243C334.478 243 337.5 246.022 337.5 249.75Z" fill="#003E9C"/>
<path d="M378 249.75C378 253.478 374.978 256.5 371.25 256.5C367.522 256.5 364.5 253.478 364.5 249.75C364.5 246.022 367.522 243 371.25 243C374.978 243 378 246.022 378 249.75Z" fill="#003E9C"/>
<path d="M13.5 290.25C13.5 293.978 10.4779 297 6.75 297C3.02208 297 0 293.978 0 290.25C0 286.522 3.02208 283.5 6.75 283.5C10.4779 283.5 13.5 286.522 13.5 290.25Z" fill="#003E9C"/>
<path d="M54 290.25C54 293.978 50.9779 297 47.25 297C43.5221 297 40.5 293.978 40.5 290.25C40.5 286.522 43.5221 283.5 47.25 283.5C50.9779 283.5 54 286.522 54 290.25Z" fill="#003E9C"/>
<path d="M94.5 290.25C94.5 293.978 91.4779 297 87.75 297C84.0221 297 81 293.978 81 290.25C81 286.522 84.0221 283.5 87.75 283.5C91.4779 283.5 94.5 286.522 94.5 290.25Z" fill="#003E9C"/>
<path d="M135 290.25C135 293.978 131.978 297 128.25 297C124.522 297 121.5 293.978 121.5 290.25C121.5 286.522 124.522 283.5 128.25 283.5C131.978 283.5 135 286.522 135 290.25Z" fill="#003E9C"/>
<path d="M175.5 290.25C175.5 293.978 172.478 297 168.75 297C165.022 297 162 293.978 162 290.25C162 286.522 165.022 283.5 168.75 283.5C172.478 283.5 175.5 286.522 175.5 290.25Z" fill="#003E9C"/>
<path d="M216 290.25C216 293.978 212.978 297 209.25 297C205.522 297 202.5 293.978 202.5 290.25C202.5 286.522 205.522 283.5 209.25 283.5C212.978 283.5 216 286.522 216 290.25Z" fill="#003E9C"/>
<path d="M256.5 290.25C256.5 293.978 253.478 297 249.75 297C246.022 297 243 293.978 243 290.25C243 286.522 246.022 283.5 249.75 283.5C253.478 283.5 256.5 286.522 256.5 290.25Z" fill="#003E9C"/>
<path d="M297 290.25C297 293.978 293.978 297 290.25 297C286.522 297 283.5 293.978 283.5 290.25C283.5 286.522 286.522 283.5 290.25 283.5C293.978 283.5 297 286.522 297 290.25Z" fill="#003E9C"/>
<path d="M337.5 290.25C337.5 293.978 334.478 297 330.75 297C327.022 297 324 293.978 324 290.25C324 286.522 327.022 283.5 330.75 283.5C334.478 283.5 337.5 286.522 337.5 290.25Z" fill="#003E9C"/>
<path d="M378 290.25C378 293.978 374.978 297 371.25 297C367.522 297 364.5 293.978 364.5 290.25C364.5 286.522 367.522 283.5 371.25 283.5C374.978 283.5 378 286.522 378 290.25Z" fill="#003E9C"/>
<path d="M13.5 330.75C13.5 334.478 10.4779 337.5 6.75 337.5C3.02208 337.5 0 334.478 0 330.75C0 327.022 3.02208 324 6.75 324C10.4779 324 13.5 327.022 13.5 330.75Z" fill="#003E9C"/>
<path d="M54 330.75C54 334.478 50.9779 337.5 47.25 337.5C43.5221 337.5 40.5 334.478 40.5 330.75C40.5 327.022 43.5221 324 47.25 324C50.9779 324 54 327.022 54 330.75Z" fill="#003E9C"/>
<path d="M94.5 330.75C94.5 334.478 91.4779 337.5 87.75 337.5C84.0221 337.5 81 334.478 81 330.75C81 327.022 84.0221 324 87.75 324C91.4779 324 94.5 327.022 94.5 330.75Z" fill="#003E9C"/>
<path d="M135 330.75C135 334.478 131.978 337.5 128.25 337.5C124.522 337.5 121.5 334.478 121.5 330.75C121.5 327.022 124.522 324 128.25 324C131.978 324 135 327.022 135 330.75Z" fill="#003E9C"/>
<path d="M175.5 330.75C175.5 334.478 172.478 337.5 168.75 337.5C165.022 337.5 162 334.478 162 330.75C162 327.022 165.022 324 168.75 324C172.478 324 175.5 327.022 175.5 330.75Z" fill="#003E9C"/>
<path d="M216 330.75C216 334.478 212.978 337.5 209.25 337.5C205.522 337.5 202.5 334.478 202.5 330.75C202.5 327.022 205.522 324 209.25 324C212.978 324 216 327.022 216 330.75Z" fill="#003E9C"/>
<path d="M256.5 330.75C256.5 334.478 253.478 337.5 249.75 337.5C246.022 337.5 243 334.478 243 330.75C243 327.022 246.022 324 249.75 324C253.478 324 256.5 327.022 256.5 330.75Z" fill="#003E9C"/>
<path d="M297 330.75C297 334.478 293.978 337.5 290.25 337.5C286.522 337.5 283.5 334.478 283.5 330.75C283.5 327.022 286.522 324 290.25 324C293.978 324 297 327.022 297 330.75Z" fill="#003E9C"/>
<path d="M337.5 330.75C337.5 334.478 334.478 337.5 330.75 337.5C327.022 337.5 324 334.478 324 330.75C324 327.022 327.022 324 330.75 324C334.478 324 337.5 327.022 337.5 330.75Z" fill="#003E9C"/>
<path d="M378 330.75C378 334.478 374.978 337.5 371.25 337.5C367.522 337.5 364.5 334.478 364.5 330.75C364.5 327.022 367.522 324 371.25 324C374.978 324 378 327.022 378 330.75Z" fill="#003E9C"/>
<path d="M13.5 371.25C13.5 374.978 10.4779 378 6.75 378C3.02208 378 0 374.978 0 371.25C0 367.522 3.02208 364.5 6.75 364.5C10.4779 364.5 13.5 367.522 13.5 371.25Z" fill="#003E9C"/>
<path d="M54 371.25C54 374.978 50.9779 378 47.25 378C43.5221 378 40.5 374.978 40.5 371.25C40.5 367.522 43.5221 364.5 47.25 364.5C50.9779 364.5 54 367.522 54 371.25Z" fill="#003E9C"/>
<path d="M94.5 371.25C94.5 374.978 91.4779 378 87.75 378C84.0221 378 81 374.978 81 371.25C81 367.522 84.0221 364.5 87.75 364.5C91.4779 364.5 94.5 367.522 94.5 371.25Z" fill="#003E9C"/>
<path d="M135 371.25C135 374.978 131.978 378 128.25 378C124.522 378 121.5 374.978 121.5 371.25C121.5 367.522 124.522 364.5 128.25 364.5C131.978 364.5 135 367.522 135 371.25Z" fill="#003E9C"/>
<path d="M175.5 371.25C175.5 374.978 172.478 378 168.75 378C165.022 378 162 374.978 162 371.25C162 367.522 165.022 364.5 168.75 364.5C172.478 364.5 175.5 367.522 175.5 371.25Z" fill="#003E9C"/>
<path d="M216 371.25C216 374.978 212.978 378 209.25 378C205.522 378 202.5 374.978 202.5 371.25C202.5 367.522 205.522 364.5 209.25 364.5C212.978 364.5 216 367.522 216 371.25Z" fill="#003E9C"/>
<path d="M256.5 371.25C256.5 374.978 253.478 378 249.75 378C246.022 378 243 374.978 243 371.25C243 367.522 246.022 364.5 249.75 364.5C253.478 364.5 256.5 367.522 256.5 371.25Z" fill="#003E9C"/>
<path d="M297 371.25C297 374.978 293.978 378 290.25 378C286.522 378 283.5 374.978 283.5 371.25C283.5 367.522 286.522 364.5 290.25 364.5C293.978 364.5 297 367.522 297 371.25Z" fill="#003E9C"/>
<path d="M337.5 371.25C337.5 374.978 334.478 378 330.75 378C327.022 378 324 374.978 324 371.25C324 367.522 327.022 364.5 330.75 364.5C334.478 364.5 337.5 367.522 337.5 371.25Z" fill="#003E9C"/>
<path d="M378 371.25C378 374.978 374.978 378 371.25 378C367.522 378 364.5 374.978 364.5 371.25C364.5 367.522 367.522 364.5 371.25 364.5C374.978 364.5 378 367.522 378 371.25Z" fill="#003E9C"/>
<rect x="61" y="61" width="256" height="256" rx="128" fill="white"/>
<path d="M155.073 201.56V210.434H146.403V224H136.917V210.434H100.503V201.56L126.105 152.6H136.305L110.703 201.56H136.917V181.364H146.403V201.56H155.073Z" fill="#0E67CE"/>
<path d="M209.804 215.228C204.976 221.96 198.21 225.326 189.506 225.326C180.802 225.326 174.036 221.96 169.208 215.228C164.38 208.496 161.966 199.52 161.966 188.3C161.966 177.08 164.38 168.104 169.208 161.372C174.036 154.64 180.802 151.274 189.506 151.274C198.21 151.274 204.976 154.64 209.804 161.372C214.632 168.104 217.046 177.08 217.046 188.3C217.046 199.52 214.632 208.496 209.804 215.228ZM176.144 208.802C179.272 213.63 183.726 216.044 189.506 216.044C195.286 216.044 199.74 213.63 202.868 208.802C206.064 203.974 207.662 197.14 207.662 188.3C207.662 179.46 206.064 172.626 202.868 167.798C199.74 162.902 195.286 160.454 189.506 160.454C183.726 160.454 179.272 162.868 176.144 167.696C173.016 172.524 171.452 179.392 171.452 188.3C171.452 197.14 173.016 203.974 176.144 208.802Z" fill="#0E67CE"/>
<path d="M278.795 201.56V210.434H270.125V224H260.639V210.434H224.225V201.56L249.827 152.6H260.027L234.425 201.56H260.639V181.364H270.125V201.56H278.795Z" fill="#0E67CE"/>
</svg>
