<svg width="19" height="15" viewBox="0 0 19 15" fill="none" xmlns="http://www.w3.org/2000/svg">
<path d="M12.2862 14.2405C13.4499 13.3544 14.4122 12.1519 15.1731 10.6329C15.8893 9.15612 16.225 7.63713 16.1802 6.07595C15.7326 6.32912 15.2403 6.4557 14.7032 6.4557C13.6737 6.4557 12.8681 6.16034 12.2862 5.56962C11.6596 5.0211 11.3463 4.2616 11.3463 3.29114C11.3463 2.32068 11.682 1.51899 12.3534 0.886076C12.98 0.295358 13.8528 4.49985e-07 14.9717 3.52162e-07C16.225 2.42601e-07 17.2097 0.421941 17.9258 1.26582C18.6419 2.1519 19 3.37553 19 4.93671C19 6.91983 18.4629 8.86076 17.3887 10.7595C16.3145 12.6582 14.9494 14.0717 13.2933 15L12.2862 14.2405ZM0.939928 14.2405C2.10365 13.3544 3.06596 12.1519 3.82685 10.6329C4.54299 9.15612 4.87868 7.63713 4.83392 6.07595C4.38634 6.32912 3.89399 6.4557 3.35689 6.4557C2.32744 6.4557 1.52179 6.16034 0.939927 5.56962C0.313308 5.0211 -9.3878e-07 4.26161 -1.02362e-06 3.29114C-1.10846e-06 2.32068 0.335686 1.51899 1.00706 0.886077C1.63368 0.295359 2.50647 1.44191e-06 3.62544 1.34409e-06C4.87868 1.23453e-06 5.86337 0.421942 6.5795 1.26582C7.29564 2.1519 7.65371 3.37553 7.65371 4.93671C7.65371 6.91983 7.11661 8.86076 6.0424 10.7595C4.9682 12.6582 3.60306 14.0717 1.94699 15L0.939928 14.2405Z" fill="#E1E1E1"/>
</svg>
