<svg width="19" height="15" viewBox="0 0 19 15" fill="none" xmlns="http://www.w3.org/2000/svg">
<path d="M6.71378 0.759495C5.55006 1.64557 4.58775 2.8481 3.82686 4.36709C3.11072 5.84388 2.77503 7.36287 2.81979 8.92405C3.26737 8.67089 3.75972 8.5443 4.29682 8.5443C5.32627 8.5443 6.13192 8.83966 6.71378 9.43038C7.3404 9.9789 7.65371 10.7384 7.65371 11.7089C7.65371 12.6793 7.31802 13.481 6.64664 14.1139C6.02002 14.7046 5.14723 15 4.02827 15C2.77503 15 1.79034 14.5781 1.07421 13.7342C0.358068 12.8481 0 11.6245 0 10.0633C0 8.08017 0.537103 6.13924 1.61131 4.2405C2.68551 2.34177 4.05065 0.928271 5.70671 0L6.71378 0.759495ZM18.0601 0.759495C16.8964 1.64557 15.934 2.8481 15.1731 4.36709C14.457 5.84388 14.1213 7.36287 14.1661 8.92405C14.6137 8.67089 15.106 8.5443 15.6431 8.5443C16.6726 8.5443 17.4782 8.83966 18.0601 9.43038C18.6867 9.9789 19 10.7384 19 11.7089C19 12.6793 18.6643 13.481 17.9929 14.1139C17.3663 14.7046 16.4935 15 15.3746 15C14.1213 15 13.1366 14.5781 12.4205 13.7342C11.7044 12.8481 11.3463 11.6245 11.3463 10.0633C11.3463 8.08017 11.8834 6.13924 12.9576 4.2405C14.0318 2.34177 15.3969 0.928271 17.053 0L18.0601 0.759495Z" fill="#E1E1E1"/>
</svg>
