<svg width="137" height="136" viewBox="0 0 137 136" fill="none" xmlns="http://www.w3.org/2000/svg">
<mask id="mask0" mask-type="alpha" maskUnits="userSpaceOnUse" x="0" y="0" width="137" height="136">
<rect width="137" height="136" fill="#C4C4C4"/>
</mask>
<g mask="url(#mask0)">
<g opacity="0.1">
<path d="M8.73214 363.536C12.4502 363.536 15.4643 366.55 15.4643 370.268C15.4643 373.986 12.4502 377 8.73214 377C5.01408 377 2 373.986 2 370.268C2 366.55 5.01408 363.536 8.73214 363.536Z" fill="#0E67CE"/>
<path d="M8.73214 323.143C12.4502 323.143 15.4643 326.157 15.4643 329.875C15.4643 333.593 12.4502 336.607 8.73214 336.607C5.01408 336.607 2 333.593 2 329.875C2 326.157 5.01408 323.143 8.73214 323.143Z" fill="#0E67CE"/>
<path d="M8.73214 282.75C12.4502 282.75 15.4643 285.764 15.4643 289.482C15.4643 293.2 12.4502 296.214 8.73214 296.214C5.01408 296.214 2 293.2 2 289.482C2 285.764 5.01408 282.75 8.73214 282.75Z" fill="#0E67CE"/>
<path d="M8.73214 242.357C12.4502 242.357 15.4643 245.371 15.4643 249.089C15.4643 252.807 12.4502 255.821 8.73214 255.821C5.01408 255.821 1.99999 252.807 1.99999 249.089C1.99999 245.371 5.01408 242.357 8.73214 242.357Z" fill="#0E67CE"/>
<path d="M8.73214 201.964C12.4502 201.964 15.4643 204.978 15.4643 208.696C15.4643 212.415 12.4502 215.429 8.73214 215.429C5.01408 215.429 1.99999 212.415 1.99999 208.696C1.99999 204.978 5.01408 201.964 8.73214 201.964Z" fill="#0E67CE"/>
<path d="M8.73213 161.571C12.4502 161.571 15.4643 164.586 15.4643 168.304C15.4643 172.022 12.4502 175.036 8.73213 175.036C5.01407 175.036 1.99999 172.022 1.99999 168.304C1.99999 164.586 5.01407 161.571 8.73213 161.571Z" fill="#0E67CE"/>
<path d="M8.73213 121.179C12.4502 121.179 15.4643 124.193 15.4643 127.911C15.4643 131.629 12.4502 134.643 8.73213 134.643C5.01407 134.643 1.99999 131.629 1.99999 127.911C1.99999 124.193 5.01407 121.179 8.73213 121.179Z" fill="#0E67CE"/>
<path d="M8.73213 80.7857C12.4502 80.7857 15.4643 83.7998 15.4643 87.5179C15.4643 91.2359 12.4502 94.25 8.73213 94.25C5.01407 94.25 1.99999 91.2359 1.99999 87.5179C1.99999 83.7998 5.01407 80.7857 8.73213 80.7857Z" fill="#0E67CE"/>
<path d="M8.73213 40.3929C12.4502 40.3929 15.4643 43.4069 15.4643 47.125C15.4643 50.8431 12.4502 53.8571 8.73213 53.8571C5.01407 53.8571 1.99999 50.8431 1.99999 47.125C1.99999 43.4069 5.01407 40.3929 8.73213 40.3929Z" fill="#0E67CE"/>
<path d="M8.73213 3.02233e-05C12.4502 3.00608e-05 15.4643 3.01409 15.4643 6.73215C15.4643 10.4502 12.4502 13.4643 8.73213 13.4643C5.01407 13.4643 1.99998 10.4502 1.99998 6.73215C1.99998 3.01409 5.01407 3.03858e-05 8.73213 3.02233e-05Z" fill="#0E67CE"/>
<path d="M49.125 363.536C52.8431 363.536 55.8571 366.55 55.8571 370.268C55.8571 373.986 52.8431 377 49.125 377C45.4069 377 42.3929 373.986 42.3929 370.268C42.3929 366.55 45.4069 363.536 49.125 363.536Z" fill="#0E67CE"/>
<path d="M49.125 323.143C52.8431 323.143 55.8571 326.157 55.8571 329.875C55.8571 333.593 52.8431 336.607 49.125 336.607C45.4069 336.607 42.3929 333.593 42.3929 329.875C42.3929 326.157 45.4069 323.143 49.125 323.143Z" fill="#0E67CE"/>
<path d="M49.125 282.75C52.8431 282.75 55.8571 285.764 55.8571 289.482C55.8571 293.2 52.8431 296.214 49.125 296.214C45.4069 296.214 42.3929 293.2 42.3929 289.482C42.3929 285.764 45.4069 282.75 49.125 282.75Z" fill="#0E67CE"/>
<path d="M49.125 242.357C52.8431 242.357 55.8571 245.371 55.8571 249.089C55.8571 252.807 52.8431 255.821 49.125 255.821C45.4069 255.821 42.3929 252.807 42.3929 249.089C42.3929 245.371 45.4069 242.357 49.125 242.357Z" fill="#0E67CE"/>
<path d="M49.125 201.964C52.8431 201.964 55.8571 204.978 55.8571 208.696C55.8571 212.414 52.8431 215.429 49.125 215.429C45.4069 215.429 42.3929 212.414 42.3929 208.696C42.3929 204.978 45.4069 201.964 49.125 201.964Z" fill="#0E67CE"/>
<path d="M49.125 161.571C52.8431 161.571 55.8571 164.586 55.8571 168.304C55.8571 172.022 52.8431 175.036 49.125 175.036C45.4069 175.036 42.3929 172.022 42.3929 168.304C42.3929 164.586 45.4069 161.571 49.125 161.571Z" fill="#0E67CE"/>
<path d="M49.125 121.179C52.8431 121.179 55.8571 124.193 55.8571 127.911C55.8571 131.629 52.8431 134.643 49.125 134.643C45.4069 134.643 42.3928 131.629 42.3928 127.911C42.3928 124.193 45.4069 121.179 49.125 121.179Z" fill="#0E67CE"/>
<path d="M49.125 80.7857C52.8431 80.7857 55.8571 83.7998 55.8571 87.5179C55.8571 91.2359 52.8431 94.25 49.125 94.25C45.4069 94.25 42.3928 91.2359 42.3928 87.5179C42.3928 83.7998 45.4069 80.7857 49.125 80.7857Z" fill="#0E67CE"/>
<path d="M49.125 40.3929C52.843 40.3929 55.8571 43.4069 55.8571 47.125C55.8571 50.8431 52.843 53.8571 49.125 53.8571C45.4069 53.8571 42.3928 50.8431 42.3928 47.125C42.3928 43.4069 45.4069 40.3929 49.125 40.3929Z" fill="#0E67CE"/>
<path d="M49.125 2.84577e-05C52.843 2.82952e-05 55.8571 3.01409 55.8571 6.73214C55.8571 10.4502 52.843 13.4643 49.125 13.4643C45.4069 13.4643 42.3928 10.4502 42.3928 6.73215C42.3928 3.01409 45.4069 2.86202e-05 49.125 2.84577e-05Z" fill="#0E67CE"/>
<path d="M89.5179 363.536C93.2359 363.536 96.25 366.55 96.25 370.268C96.25 373.986 93.2359 377 89.5179 377C85.7998 377 82.7857 373.986 82.7857 370.268C82.7857 366.55 85.7998 363.536 89.5179 363.536Z" fill="#0E67CE"/>
<path d="M89.5179 323.143C93.2359 323.143 96.25 326.157 96.25 329.875C96.25 333.593 93.2359 336.607 89.5179 336.607C85.7998 336.607 82.7857 333.593 82.7857 329.875C82.7857 326.157 85.7998 323.143 89.5179 323.143Z" fill="#0E67CE"/>
<path d="M89.5179 282.75C93.2359 282.75 96.25 285.764 96.25 289.482C96.25 293.2 93.2359 296.214 89.5179 296.214C85.7998 296.214 82.7857 293.2 82.7857 289.482C82.7857 285.764 85.7998 282.75 89.5179 282.75Z" fill="#0E67CE"/>
<path d="M89.5179 242.357C93.2359 242.357 96.25 245.371 96.25 249.089C96.25 252.807 93.2359 255.821 89.5179 255.821C85.7998 255.821 82.7857 252.807 82.7857 249.089C82.7857 245.371 85.7998 242.357 89.5179 242.357Z" fill="#0E67CE"/>
<path d="M89.5179 201.964C93.2359 201.964 96.25 204.978 96.25 208.696C96.25 212.414 93.2359 215.429 89.5179 215.429C85.7998 215.429 82.7857 212.414 82.7857 208.696C82.7857 204.978 85.7998 201.964 89.5179 201.964Z" fill="#0E67CE"/>
<path d="M89.5179 161.571C93.2359 161.571 96.25 164.586 96.25 168.304C96.25 172.022 93.2359 175.036 89.5179 175.036C85.7998 175.036 82.7857 172.022 82.7857 168.304C82.7857 164.586 85.7998 161.571 89.5179 161.571Z" fill="#0E67CE"/>
<path d="M89.5178 121.179C93.2359 121.179 96.25 124.193 96.25 127.911C96.25 131.629 93.2359 134.643 89.5178 134.643C85.7998 134.643 82.7857 131.629 82.7857 127.911C82.7857 124.193 85.7998 121.179 89.5178 121.179Z" fill="#0E67CE"/>
<path d="M89.5178 80.7857C93.2359 80.7857 96.25 83.7998 96.25 87.5179C96.25 91.2359 93.2359 94.25 89.5178 94.25C85.7998 94.25 82.7857 91.2359 82.7857 87.5179C82.7857 83.7998 85.7998 80.7857 89.5178 80.7857Z" fill="#0E67CE"/>
<path d="M89.5178 40.3929C93.2359 40.3929 96.25 43.4069 96.25 47.125C96.25 50.8431 93.2359 53.8571 89.5178 53.8571C85.7998 53.8571 82.7857 50.8431 82.7857 47.125C82.7857 43.4069 85.7998 40.3929 89.5178 40.3929Z" fill="#0E67CE"/>
<path d="M89.5178 2.66921e-05C93.2359 2.65295e-05 96.25 3.01408 96.25 6.73214C96.25 10.4502 93.2359 13.4643 89.5178 13.4643C85.7998 13.4643 82.7857 10.4502 82.7857 6.73214C82.7857 3.01408 85.7998 2.68546e-05 89.5178 2.66921e-05Z" fill="#0E67CE"/>
<path d="M129.911 363.536C133.629 363.536 136.643 366.55 136.643 370.268C136.643 373.986 133.629 377 129.911 377C126.193 377 123.179 373.986 123.179 370.268C123.179 366.55 126.193 363.536 129.911 363.536Z" fill="#0E67CE"/>
<path d="M129.911 323.143C133.629 323.143 136.643 326.157 136.643 329.875C136.643 333.593 133.629 336.607 129.911 336.607C126.193 336.607 123.179 333.593 123.179 329.875C123.179 326.157 126.193 323.143 129.911 323.143Z" fill="#0E67CE"/>
<path d="M129.911 282.75C133.629 282.75 136.643 285.764 136.643 289.482C136.643 293.2 133.629 296.214 129.911 296.214C126.193 296.214 123.179 293.2 123.179 289.482C123.179 285.764 126.193 282.75 129.911 282.75Z" fill="#0E67CE"/>
<path d="M129.911 242.357C133.629 242.357 136.643 245.371 136.643 249.089C136.643 252.807 133.629 255.821 129.911 255.821C126.193 255.821 123.179 252.807 123.179 249.089C123.179 245.371 126.193 242.357 129.911 242.357Z" fill="#0E67CE"/>
<path d="M129.911 201.964C133.629 201.964 136.643 204.978 136.643 208.696C136.643 212.414 133.629 215.429 129.911 215.429C126.193 215.429 123.179 212.414 123.179 208.696C123.179 204.978 126.193 201.964 129.911 201.964Z" fill="#0E67CE"/>
<path d="M129.911 161.571C133.629 161.571 136.643 164.586 136.643 168.304C136.643 172.022 133.629 175.036 129.911 175.036C126.193 175.036 123.179 172.022 123.179 168.304C123.179 164.586 126.193 161.571 129.911 161.571Z" fill="#0E67CE"/>
<path d="M129.911 121.179C133.629 121.179 136.643 124.193 136.643 127.911C136.643 131.629 133.629 134.643 129.911 134.643C126.193 134.643 123.179 131.629 123.179 127.911C123.179 124.193 126.193 121.179 129.911 121.179Z" fill="#0E67CE"/>
<path d="M129.911 80.7857C133.629 80.7857 136.643 83.7998 136.643 87.5179C136.643 91.2359 133.629 94.25 129.911 94.25C126.193 94.25 123.179 91.2359 123.179 87.5179C123.179 83.7998 126.193 80.7857 129.911 80.7857Z" fill="#0E67CE"/>
<path d="M129.911 40.3929C133.629 40.3929 136.643 43.4069 136.643 47.125C136.643 50.8431 133.629 53.8571 129.911 53.8571C126.193 53.8571 123.179 50.8431 123.179 47.125C123.179 43.4069 126.193 40.3929 129.911 40.3929Z" fill="#0E67CE"/>
<path d="M129.911 2.49264e-05C133.629 2.47639e-05 136.643 3.01408 136.643 6.73214C136.643 10.4502 133.629 13.4643 129.911 13.4643C126.193 13.4643 123.179 10.4502 123.179 6.73214C123.179 3.01408 126.193 2.50889e-05 129.911 2.49264e-05Z" fill="#0E67CE"/>
<path d="M170.304 363.536C174.022 363.536 177.036 366.55 177.036 370.268C177.036 373.986 174.022 377 170.304 377C166.586 377 163.571 373.986 163.571 370.268C163.571 366.55 166.586 363.536 170.304 363.536Z" fill="#0E67CE"/>
<path d="M170.304 323.143C174.022 323.143 177.036 326.157 177.036 329.875C177.036 333.593 174.022 336.607 170.304 336.607C166.586 336.607 163.571 333.593 163.571 329.875C163.571 326.157 166.586 323.143 170.304 323.143Z" fill="#0E67CE"/>
<path d="M170.304 282.75C174.022 282.75 177.036 285.764 177.036 289.482C177.036 293.2 174.022 296.214 170.304 296.214C166.586 296.214 163.571 293.2 163.571 289.482C163.571 285.764 166.586 282.75 170.304 282.75Z" fill="#0E67CE"/>
<path d="M170.304 242.357C174.022 242.357 177.036 245.371 177.036 249.089C177.036 252.807 174.022 255.821 170.304 255.821C166.586 255.821 163.571 252.807 163.571 249.089C163.571 245.371 166.586 242.357 170.304 242.357Z" fill="#0E67CE"/>
<path d="M170.304 201.964C174.022 201.964 177.036 204.978 177.036 208.696C177.036 212.414 174.022 215.429 170.304 215.429C166.586 215.429 163.571 212.414 163.571 208.696C163.571 204.978 166.586 201.964 170.304 201.964Z" fill="#0E67CE"/>
<path d="M170.304 161.571C174.022 161.571 177.036 164.586 177.036 168.304C177.036 172.022 174.022 175.036 170.304 175.036C166.586 175.036 163.571 172.022 163.571 168.304C163.571 164.586 166.586 161.571 170.304 161.571Z" fill="#0E67CE"/>
<path d="M170.304 121.179C174.022 121.179 177.036 124.193 177.036 127.911C177.036 131.629 174.022 134.643 170.304 134.643C166.586 134.643 163.571 131.629 163.571 127.911C163.571 124.193 166.586 121.179 170.304 121.179Z" fill="#0E67CE"/>
<path d="M170.304 80.7857C174.022 80.7857 177.036 83.7998 177.036 87.5179C177.036 91.2359 174.022 94.25 170.304 94.25C166.586 94.25 163.571 91.2359 163.571 87.5179C163.571 83.7998 166.586 80.7857 170.304 80.7857Z" fill="#0E67CE"/>
<path d="M170.304 40.3929C174.022 40.3929 177.036 43.4069 177.036 47.125C177.036 50.8431 174.022 53.8571 170.304 53.8571C166.585 53.8571 163.571 50.8431 163.571 47.125C163.571 43.4069 166.585 40.3929 170.304 40.3929Z" fill="#0E67CE"/>
<path d="M170.304 2.31608e-05C174.022 2.29983e-05 177.036 3.01408 177.036 6.73214C177.036 10.4502 174.022 13.4643 170.304 13.4643C166.585 13.4643 163.571 10.4502 163.571 6.73214C163.571 3.01408 166.585 2.33233e-05 170.304 2.31608e-05Z" fill="#0E67CE"/>
<path d="M210.696 363.536C214.415 363.536 217.429 366.55 217.429 370.268C217.429 373.986 214.415 377 210.696 377C206.978 377 203.964 373.986 203.964 370.268C203.964 366.55 206.978 363.536 210.696 363.536Z" fill="#0E67CE"/>
<path d="M210.696 323.143C214.414 323.143 217.429 326.157 217.429 329.875C217.429 333.593 214.414 336.607 210.696 336.607C206.978 336.607 203.964 333.593 203.964 329.875C203.964 326.157 206.978 323.143 210.696 323.143Z" fill="#0E67CE"/>
<path d="M210.696 282.75C214.414 282.75 217.429 285.764 217.429 289.482C217.429 293.2 214.414 296.214 210.696 296.214C206.978 296.214 203.964 293.2 203.964 289.482C203.964 285.764 206.978 282.75 210.696 282.75Z" fill="#0E67CE"/>
<path d="M210.696 242.357C214.414 242.357 217.429 245.371 217.429 249.089C217.429 252.807 214.414 255.821 210.696 255.821C206.978 255.821 203.964 252.807 203.964 249.089C203.964 245.371 206.978 242.357 210.696 242.357Z" fill="#0E67CE"/>
<path d="M210.696 201.964C214.414 201.964 217.429 204.978 217.429 208.696C217.429 212.414 214.414 215.429 210.696 215.429C206.978 215.429 203.964 212.414 203.964 208.696C203.964 204.978 206.978 201.964 210.696 201.964Z" fill="#0E67CE"/>
<path d="M210.696 161.571C214.414 161.571 217.429 164.586 217.429 168.304C217.429 172.022 214.414 175.036 210.696 175.036C206.978 175.036 203.964 172.022 203.964 168.304C203.964 164.586 206.978 161.571 210.696 161.571Z" fill="#0E67CE"/>
<path d="M210.696 121.179C214.414 121.179 217.429 124.193 217.429 127.911C217.429 131.629 214.414 134.643 210.696 134.643C206.978 134.643 203.964 131.629 203.964 127.911C203.964 124.193 206.978 121.179 210.696 121.179Z" fill="#0E67CE"/>
<path d="M210.696 80.7857C214.414 80.7857 217.429 83.7998 217.429 87.5179C217.429 91.2359 214.414 94.25 210.696 94.25C206.978 94.25 203.964 91.2359 203.964 87.5179C203.964 83.7998 206.978 80.7857 210.696 80.7857Z" fill="#0E67CE"/>
<path d="M210.696 40.3929C214.414 40.3929 217.429 43.4069 217.429 47.125C217.429 50.8431 214.414 53.8571 210.696 53.8571C206.978 53.8571 203.964 50.8431 203.964 47.125C203.964 43.4069 206.978 40.3929 210.696 40.3929Z" fill="#0E67CE"/>
<path d="M210.696 2.13952e-05C214.414 2.12326e-05 217.429 3.01408 217.429 6.73214C217.429 10.4502 214.414 13.4643 210.696 13.4643C206.978 13.4643 203.964 10.4502 203.964 6.73214C203.964 3.01408 206.978 2.15577e-05 210.696 2.13952e-05Z" fill="#0E67CE"/>
<path d="M251.089 363.536C254.807 363.536 257.821 366.55 257.821 370.268C257.821 373.986 254.807 377 251.089 377C247.371 377 244.357 373.986 244.357 370.268C244.357 366.55 247.371 363.536 251.089 363.536Z" fill="#0E67CE"/>
<path d="M251.089 323.143C254.807 323.143 257.821 326.157 257.821 329.875C257.821 333.593 254.807 336.607 251.089 336.607C247.371 336.607 244.357 333.593 244.357 329.875C244.357 326.157 247.371 323.143 251.089 323.143Z" fill="#0E67CE"/>
<path d="M251.089 282.75C254.807 282.75 257.821 285.764 257.821 289.482C257.821 293.2 254.807 296.214 251.089 296.214C247.371 296.214 244.357 293.2 244.357 289.482C244.357 285.764 247.371 282.75 251.089 282.75Z" fill="#0E67CE"/>
<path d="M251.089 242.357C254.807 242.357 257.821 245.371 257.821 249.089C257.821 252.807 254.807 255.821 251.089 255.821C247.371 255.821 244.357 252.807 244.357 249.089C244.357 245.371 247.371 242.357 251.089 242.357Z" fill="#0E67CE"/>
<path d="M251.089 201.964C254.807 201.964 257.821 204.978 257.821 208.696C257.821 212.414 254.807 215.429 251.089 215.429C247.371 215.429 244.357 212.414 244.357 208.696C244.357 204.978 247.371 201.964 251.089 201.964Z" fill="#0E67CE"/>
<path d="M251.089 161.571C254.807 161.571 257.821 164.586 257.821 168.304C257.821 172.022 254.807 175.036 251.089 175.036C247.371 175.036 244.357 172.022 244.357 168.304C244.357 164.586 247.371 161.571 251.089 161.571Z" fill="#0E67CE"/>
<path d="M251.089 121.179C254.807 121.179 257.821 124.193 257.821 127.911C257.821 131.629 254.807 134.643 251.089 134.643C247.371 134.643 244.357 131.629 244.357 127.911C244.357 124.193 247.371 121.179 251.089 121.179Z" fill="#0E67CE"/>
<path d="M251.089 80.7857C254.807 80.7857 257.821 83.7998 257.821 87.5179C257.821 91.2359 254.807 94.25 251.089 94.25C247.371 94.25 244.357 91.2359 244.357 87.5179C244.357 83.7998 247.371 80.7857 251.089 80.7857Z" fill="#0E67CE"/>
<path d="M251.089 40.3929C254.807 40.3929 257.821 43.4069 257.821 47.125C257.821 50.843 254.807 53.8571 251.089 53.8571C247.371 53.8571 244.357 50.843 244.357 47.125C244.357 43.4069 247.371 40.3929 251.089 40.3929Z" fill="#0E67CE"/>
<path d="M251.089 1.96295e-05C254.807 1.9467e-05 257.821 3.01408 257.821 6.73214C257.821 10.4502 254.807 13.4643 251.089 13.4643C247.371 13.4643 244.357 10.4502 244.357 6.73214C244.357 3.01408 247.371 1.97921e-05 251.089 1.96295e-05Z" fill="#0E67CE"/>
<path d="M291.482 363.536C295.2 363.536 298.214 366.55 298.214 370.268C298.214 373.986 295.2 377 291.482 377C287.764 377 284.75 373.986 284.75 370.268C284.75 366.55 287.764 363.536 291.482 363.536Z" fill="#0E67CE"/>
<path d="M291.482 323.143C295.2 323.143 298.214 326.157 298.214 329.875C298.214 333.593 295.2 336.607 291.482 336.607C287.764 336.607 284.75 333.593 284.75 329.875C284.75 326.157 287.764 323.143 291.482 323.143Z" fill="#0E67CE"/>
<path d="M291.482 282.75C295.2 282.75 298.214 285.764 298.214 289.482C298.214 293.2 295.2 296.214 291.482 296.214C287.764 296.214 284.75 293.2 284.75 289.482C284.75 285.764 287.764 282.75 291.482 282.75Z" fill="#0E67CE"/>
<path d="M291.482 242.357C295.2 242.357 298.214 245.371 298.214 249.089C298.214 252.807 295.2 255.821 291.482 255.821C287.764 255.821 284.75 252.807 284.75 249.089C284.75 245.371 287.764 242.357 291.482 242.357Z" fill="#0E67CE"/>
<path d="M291.482 201.964C295.2 201.964 298.214 204.978 298.214 208.696C298.214 212.414 295.2 215.429 291.482 215.429C287.764 215.429 284.75 212.414 284.75 208.696C284.75 204.978 287.764 201.964 291.482 201.964Z" fill="#0E67CE"/>
<path d="M291.482 161.571C295.2 161.571 298.214 164.586 298.214 168.304C298.214 172.022 295.2 175.036 291.482 175.036C287.764 175.036 284.75 172.022 284.75 168.304C284.75 164.586 287.764 161.571 291.482 161.571Z" fill="#0E67CE"/>
<path d="M291.482 121.179C295.2 121.179 298.214 124.193 298.214 127.911C298.214 131.629 295.2 134.643 291.482 134.643C287.764 134.643 284.75 131.629 284.75 127.911C284.75 124.193 287.764 121.179 291.482 121.179Z" fill="#0E67CE"/>
<path d="M291.482 80.7857C295.2 80.7857 298.214 83.7998 298.214 87.5179C298.214 91.2359 295.2 94.25 291.482 94.25C287.764 94.25 284.75 91.2359 284.75 87.5179C284.75 83.7998 287.764 80.7857 291.482 80.7857Z" fill="#0E67CE"/>
<path d="M291.482 40.3929C295.2 40.3929 298.214 43.4069 298.214 47.125C298.214 50.843 295.2 53.8571 291.482 53.8571C287.764 53.8571 284.75 50.843 284.75 47.125C284.75 43.4069 287.764 40.3929 291.482 40.3929Z" fill="#0E67CE"/>
<path d="M291.482 1.78639e-05C295.2 1.77014e-05 298.214 3.01407 298.214 6.73213C298.214 10.4502 295.2 13.4643 291.482 13.4643C287.764 13.4643 284.75 10.4502 284.75 6.73213C284.75 3.01408 287.764 1.80264e-05 291.482 1.78639e-05Z" fill="#0E67CE"/>
<path d="M331.875 363.536C335.593 363.536 338.607 366.55 338.607 370.268C338.607 373.986 335.593 377 331.875 377C328.157 377 325.143 373.986 325.143 370.268C325.143 366.55 328.157 363.536 331.875 363.536Z" fill="#0E67CE"/>
<path d="M331.875 323.143C335.593 323.143 338.607 326.157 338.607 329.875C338.607 333.593 335.593 336.607 331.875 336.607C328.157 336.607 325.143 333.593 325.143 329.875C325.143 326.157 328.157 323.143 331.875 323.143Z" fill="#0E67CE"/>
<path d="M331.875 282.75C335.593 282.75 338.607 285.764 338.607 289.482C338.607 293.2 335.593 296.214 331.875 296.214C328.157 296.214 325.143 293.2 325.143 289.482C325.143 285.764 328.157 282.75 331.875 282.75Z" fill="#0E67CE"/>
<path d="M331.875 242.357C335.593 242.357 338.607 245.371 338.607 249.089C338.607 252.807 335.593 255.821 331.875 255.821C328.157 255.821 325.143 252.807 325.143 249.089C325.143 245.371 328.157 242.357 331.875 242.357Z" fill="#0E67CE"/>
<path d="M331.875 201.964C335.593 201.964 338.607 204.978 338.607 208.696C338.607 212.414 335.593 215.429 331.875 215.429C328.157 215.429 325.143 212.414 325.143 208.696C325.143 204.978 328.157 201.964 331.875 201.964Z" fill="#0E67CE"/>
<path d="M331.875 161.571C335.593 161.571 338.607 164.585 338.607 168.304C338.607 172.022 335.593 175.036 331.875 175.036C328.157 175.036 325.143 172.022 325.143 168.304C325.143 164.585 328.157 161.571 331.875 161.571Z" fill="#0E67CE"/>
<path d="M331.875 121.179C335.593 121.179 338.607 124.193 338.607 127.911C338.607 131.629 335.593 134.643 331.875 134.643C328.157 134.643 325.143 131.629 325.143 127.911C325.143 124.193 328.157 121.179 331.875 121.179Z" fill="#0E67CE"/>
<path d="M331.875 80.7857C335.593 80.7857 338.607 83.7998 338.607 87.5179C338.607 91.2359 335.593 94.25 331.875 94.25C328.157 94.25 325.143 91.2359 325.143 87.5179C325.143 83.7998 328.157 80.7857 331.875 80.7857Z" fill="#0E67CE"/>
<path d="M331.875 40.3929C335.593 40.3929 338.607 43.4069 338.607 47.125C338.607 50.843 335.593 53.8571 331.875 53.8571C328.157 53.8571 325.143 50.843 325.143 47.125C325.143 43.4069 328.157 40.3929 331.875 40.3929Z" fill="#0E67CE"/>
<path d="M331.875 1.60983e-05C335.593 1.59358e-05 338.607 3.01407 338.607 6.73213C338.607 10.4502 335.593 13.4643 331.875 13.4643C328.157 13.4643 325.143 10.4502 325.143 6.73213C325.143 3.01407 328.157 1.62608e-05 331.875 1.60983e-05Z" fill="#0E67CE"/>
<path d="M372.268 363.536C375.986 363.536 379 366.55 379 370.268C379 373.986 375.986 377 372.268 377C368.55 377 365.536 373.986 365.536 370.268C365.536 366.55 368.55 363.536 372.268 363.536Z" fill="#0E67CE"/>
<path d="M372.268 323.143C375.986 323.143 379 326.157 379 329.875C379 333.593 375.986 336.607 372.268 336.607C368.55 336.607 365.536 333.593 365.536 329.875C365.536 326.157 368.55 323.143 372.268 323.143Z" fill="#0E67CE"/>
<path d="M372.268 282.75C375.986 282.75 379 285.764 379 289.482C379 293.2 375.986 296.214 372.268 296.214C368.55 296.214 365.536 293.2 365.536 289.482C365.536 285.764 368.55 282.75 372.268 282.75Z" fill="#0E67CE"/>
<path d="M372.268 242.357C375.986 242.357 379 245.371 379 249.089C379 252.807 375.986 255.821 372.268 255.821C368.55 255.821 365.536 252.807 365.536 249.089C365.536 245.371 368.55 242.357 372.268 242.357Z" fill="#0E67CE"/>
<path d="M372.268 201.964C375.986 201.964 379 204.978 379 208.696C379 212.414 375.986 215.429 372.268 215.429C368.55 215.429 365.536 212.414 365.536 208.696C365.536 204.978 368.55 201.964 372.268 201.964Z" fill="#0E67CE"/>
<path d="M372.268 161.571C375.986 161.571 379 164.585 379 168.304C379 172.022 375.986 175.036 372.268 175.036C368.55 175.036 365.536 172.022 365.536 168.304C365.536 164.585 368.55 161.571 372.268 161.571Z" fill="#0E67CE"/>
<path d="M372.268 121.179C375.986 121.179 379 124.193 379 127.911C379 131.629 375.986 134.643 372.268 134.643C368.55 134.643 365.536 131.629 365.536 127.911C365.536 124.193 368.55 121.179 372.268 121.179Z" fill="#0E67CE"/>
<path d="M372.268 80.7857C375.986 80.7857 379 83.7998 379 87.5179C379 91.2359 375.986 94.25 372.268 94.25C368.55 94.25 365.536 91.2359 365.536 87.5179C365.536 83.7998 368.55 80.7857 372.268 80.7857Z" fill="#0E67CE"/>
<path d="M372.268 40.3929C375.986 40.3929 379 43.4069 379 47.125C379 50.843 375.986 53.8571 372.268 53.8571C368.55 53.8571 365.536 50.843 365.536 47.125C365.536 43.4069 368.55 40.3929 372.268 40.3929Z" fill="#0E67CE"/>
<path d="M372.268 1.43327e-05C375.986 1.41701e-05 379 3.01407 379 6.73213C379 10.4502 375.986 13.4643 372.268 13.4643C368.55 13.4643 365.536 10.4502 365.536 6.73213C365.536 3.01407 368.55 1.44952e-05 372.268 1.43327e-05Z" fill="#0E67CE"/>
</g>
</g>
</svg>
