<svg width="15" height="13" viewBox="0 0 15 13" fill="none" xmlns="http://www.w3.org/2000/svg">
<path d="M14.793 6.03906L13.125 4.67188V2.53906C13.125 2.45703 13.043 2.375 12.9609 2.375H12.4141C12.3047 2.375 12.25 2.45703 12.25 2.53906V3.96094L8.42188 0.84375C8.28516 0.734375 8.03906 0.652344 7.875 0.652344C7.68359 0.652344 7.4375 0.734375 7.30078 0.84375L0.957031 6.03906C0.902344 6.06641 0.875 6.14844 0.875 6.20312C0.875 6.23047 0.875 6.3125 0.902344 6.33984L1.17578 6.66797C1.23047 6.72266 1.3125 6.75 1.36719 6.75C1.39453 6.75 1.44922 6.72266 1.50391 6.69531L2.625 5.79297V12.4375C2.625 12.6836 2.81641 12.875 3.0625 12.875H6.5625C6.78125 12.875 7 12.6836 7 12.4375V8.9375H8.75V12.4375C8.75 12.6836 8.94141 12.875 9.1875 12.875H12.6875C12.9062 12.875 13.125 12.6836 13.125 12.4375V5.79297L14.2188 6.69531C14.2734 6.72266 14.3281 6.75 14.3555 6.75C14.4375 6.75 14.4922 6.72266 14.5469 6.66797L14.8203 6.33984C14.8477 6.3125 14.8477 6.23047 14.8477 6.20312C14.8477 6.14844 14.8203 6.06641 14.793 6.03906ZM12.2227 12L9.59766 12.0273V8.5C9.59766 8.28125 9.40625 8.0625 9.1875 8.0625H6.5625H6.53516C6.31641 8.0625 6.09766 8.25391 6.09766 8.5V12H3.5V5.08203L7.875 1.5L12.25 5.08203L12.2227 12Z" fill="#888888"/>
</svg>
