<svg width="45" height="45" viewBox="0 0 45 45" fill="none" xmlns="http://www.w3.org/2000/svg">
<path d="M35.4931 0H9.50692C4.2564 0 0 4.25635 0 9.50688V35.4931C0 40.7436 4.2564 45 9.50692 45H35.4931C40.7436 45 45 40.7436 45 35.4931V9.50688C45 4.25635 40.7436 0 35.4931 0Z" fill="#0E67CE"/>
<path d="M30.6599 30.0908L34.2251 36.2663H28.8551L26.6325 32.4174C28.0953 31.8961 29.4601 31.1113 30.6599 30.0908Z" fill="#FEFEFE"/>
<path fill-rule="evenodd" clip-rule="evenodd" d="M11.567 35.4832L14.7134 35.4841C14.8789 34.3648 15.3965 33.3291 16.2021 32.5231C17.1939 31.5303 18.5328 30.9858 19.9346 30.9858H22.2945C25.1507 30.9858 27.8651 29.8614 29.8852 27.8417C31.9054 25.8215 33.0294 23.1081 33.0294 20.2509C33.0294 17.3933 31.9054 14.6794 29.8852 12.6588C27.8655 10.6391 25.1512 9.51514 22.2945 9.51514C19.4711 9.51514 16.7877 10.6193 14.7745 12.5969C12.7631 14.5732 11.6178 17.2404 11.5688 20.0522L11.567 35.4832ZM16.9379 14.7968C18.3711 13.3881 20.2863 12.6131 22.2945 12.6131C24.3262 12.6131 26.2581 13.4135 27.6945 14.8504C29.131 16.2869 29.9315 18.2197 29.9315 20.2509C29.9315 22.2822 29.131 24.2145 27.6945 25.6505C26.2585 27.0869 24.3257 27.8874 22.2945 27.8874H19.9351C18.4876 27.8874 17.0751 28.2581 15.8171 28.9745L14.6483 29.6404L14.6492 20.1109C14.6839 18.1028 15.5061 16.2041 16.9379 14.7968Z" fill="#FEFEFE"/>
<path d="M26.4445 19.1289C26.6964 20.0606 26.622 21.003 26.2901 21.8372L26.2573 21.7082C25.4578 18.754 22.846 16.7754 19.9435 16.6502C20.3119 16.4099 20.7237 16.2222 21.172 16.1006C23.4644 15.4813 25.8247 16.8365 26.4449 19.1289H26.4445Z" fill="#FEFEFE"/>
</svg>
