<svg width="173" height="34" viewBox="0 0 173 34" fill="none" xmlns="http://www.w3.org/2000/svg">
<g clip-path="url(#clip0)">
<path d="M173 32.808H167.64V19.6732H153.583V32.808H148.179V2.0567H153.583V14.6207H167.64V2.0567H173V32.808Z" fill="#211A52"/>
<path d="M140.755 25.78L142.82 29.8208C141.853 30.8465 140.47 31.6809 138.668 32.3251C136.867 32.9693 134.971 33.2916 132.98 33.2916C128.294 33.2916 124.472 31.8416 121.513 28.9428C118.585 26.0431 117.121 22.2065 117.121 17.4324C117.121 12.8635 118.511 9.07079 121.294 6.05464C124.047 3.06682 127.899 1.57321 132.848 1.57321C136.773 1.57321 139.892 2.61285 142.205 4.69306L139.789 8.6903C137.709 7.31378 135.396 6.62599 132.848 6.62599C129.919 6.62599 127.518 7.60709 125.643 9.56959C123.769 11.5318 122.831 14.1525 122.831 17.4327C122.831 20.6547 123.812 23.2611 125.775 25.2522C127.767 27.2443 130.33 28.2401 133.463 28.2401C136.158 28.2401 138.588 27.4196 140.755 25.7803L140.755 25.78Z" fill="#211A52"/>
<path d="M112.376 32.808H94.144V2.0567H111.936V7.10916H99.5474V14.7524H110.618V19.8049H99.5474V27.7564H112.376V32.808Z" fill="#211A52"/>
<path d="M80.6579 2.05743H86.0176V20.0693C86.0176 24.4916 84.8603 27.8008 82.5469 29.998C80.2039 32.1944 77.2892 33.2926 73.8045 33.2926C69.8511 33.2926 66.6728 32.1358 64.2712 29.8218C61.8996 27.5078 60.7133 24.1547 60.7133 19.7624V2.05774H66.1167V18.6197C66.1167 21.666 66.7684 24.0305 68.0717 25.7143C69.3751 27.3991 71.2862 28.241 73.8045 28.241C78.3734 28.241 80.6579 25.1508 80.6579 18.9715V2.05774V2.05743Z" fill="#211A52"/>
<path d="M9.97226 7.10916H0V2.0567H25.3485V7.10916H15.3756V32.808H9.97226V7.10916Z" fill="#211A52"/>
<path d="M50.4698 26.3564C49.3078 27.2672 48.0226 28.0104 46.6532 28.5618L48.801 32.282H53.8911L50.4698 26.3564Z" fill="#0E67CE"/>
<path d="M27.8019 32.2821H32.2357C32.3575 30.9318 32.9447 29.6661 33.9143 28.6999C35.0075 27.6105 36.4752 26.998 38.0199 26.998H40.7913C44.2505 26.998 47.5373 25.6364 49.983 23.1907C52.4278 20.7456 53.7903 17.4582 53.7903 13.9999C53.7903 10.5404 52.4269 7.25555 49.9777 4.81293C47.5313 2.37248 44.2499 1 40.7913 1C37.3726 1 34.1226 2.337 31.6856 4.73198C29.2488 7.12666 27.8627 10.3598 27.8048 13.7667L27.8019 32.2821ZM34.7749 7.87267C36.3846 6.29127 38.5361 5.4207 40.7916 5.4207C43.0758 5.4207 45.2447 6.31555 46.8569 7.93432C48.4664 9.55059 49.3699 11.7167 49.3699 13.9996C49.3699 16.2813 48.4689 18.4509 46.856 20.064C45.2438 21.6769 43.0727 22.577 40.7916 22.577H38.0202C36.2532 22.577 34.527 23.0288 32.9889 23.8987L32.2024 24.3437L32.2034 13.8424C32.2416 11.5863 33.167 9.45314 34.7749 7.87267Z" fill="#0E67CE"/>
<path d="M45.6657 12.6815C45.9615 13.7757 45.8739 14.8829 45.4844 15.8624L45.4458 15.7108C44.5068 12.2416 41.4395 9.91759 38.0308 9.77031C38.4632 9.48853 38.9468 9.26777 39.4733 9.12517C42.1656 8.39783 44.9377 9.9892 45.666 12.6815H45.6657Z" fill="#0E67CE"/>
</g>
<defs>
<clipPath id="clip0">
<rect width="173" height="33.9333" fill="white" transform="translate(0 0.0667419)"/>
</clipPath>
</defs>
</svg>
