<svg width="16" height="16" viewBox="0 0 16 16" fill="none" xmlns="http://www.w3.org/2000/svg">
<g opacity="0.8">
<path fill-rule="evenodd" clip-rule="evenodd" d="M13.0014 8.00004C13.0014 8.22671 12.9814 8.44004 12.9547 8.65337L14.3614 9.75337C14.488 9.85337 14.5214 10.0334 14.4414 10.18L13.108 12.4867C13.048 12.5934 12.9347 12.6534 12.8214 12.6534C12.7814 12.6534 12.7414 12.6467 12.7014 12.6334L11.0414 11.9667C10.6947 12.2267 10.3214 12.4534 9.91469 12.62L9.66136 14.3867C9.64136 14.5467 9.50136 14.6667 9.33469 14.6667H6.66802C6.50136 14.6667 6.36136 14.5467 6.34136 14.3867L6.08802 12.62C5.68136 12.4534 5.30802 12.2334 4.96136 11.9667L3.30136 12.6334C3.26802 12.6467 3.22802 12.6534 3.18802 12.6534C3.06802 12.6534 2.95469 12.5934 2.89469 12.4867L1.56136 10.18C1.48136 10.0334 1.51469 9.85337 1.64136 9.75337L3.04802 8.65337C3.02136 8.44004 3.00136 8.22004 3.00136 8.00004C3.00136 7.78004 3.02136 7.56004 3.04802 7.34671L1.64136 6.24671C1.51469 6.14671 1.47469 5.96671 1.56136 5.82004L2.89469 3.51337C2.95469 3.40671 3.06802 3.34671 3.18136 3.34671C3.22136 3.34671 3.26136 3.35337 3.30136 3.36671L4.96136 4.03337C5.30802 3.77337 5.68136 3.54671 6.08802 3.38004L6.34136 1.61337C6.36136 1.45337 6.50136 1.33337 6.66802 1.33337H9.33469C9.50136 1.33337 9.64136 1.45337 9.66136 1.61337L9.91469 3.38004C10.3214 3.54671 10.6947 3.76671 11.0414 4.03337L12.7014 3.36671C12.7347 3.35337 12.7747 3.34671 12.8147 3.34671C12.9347 3.34671 13.048 3.40671 13.108 3.51337L14.4414 5.82004C14.5214 5.96671 14.488 6.14671 14.3614 6.24671L12.9547 7.34671C12.9814 7.56004 13.0014 7.77337 13.0014 8.00004ZM11.668 8.00004C11.668 7.86004 11.6614 7.72004 11.6347 7.51337L11.5414 6.76004L12.1347 6.29337L12.848 5.72671L12.3814 4.92004L11.5347 5.26004L10.828 5.54671L10.2214 5.08004C9.95469 4.88004 9.68802 4.72671 9.40136 4.60671L8.69469 4.32004L8.58802 3.56671L8.46136 2.66671H7.53469L7.40136 3.56671L7.29469 4.32004L6.58802 4.60671C6.31469 4.72004 6.04136 4.88004 5.75469 5.09337L5.15469 5.54671L4.46136 5.26671L3.61469 4.92671L3.14802 5.73337L3.86802 6.29337L4.46136 6.76004L4.36802 7.51337C4.34802 7.71337 4.33469 7.86671 4.33469 8.00004C4.33469 8.13337 4.34802 8.28671 4.36802 8.49337L4.46136 9.24671L3.86802 9.71337L3.14802 10.2734L3.61469 11.08L4.46136 10.74L5.16802 10.4534L5.77469 10.92C6.04136 11.12 6.30802 11.2734 6.59469 11.3934L7.30136 11.68L7.40802 12.4334L7.53469 13.3334H8.46802L8.60136 12.4334L8.70802 11.68L9.41469 11.3934C9.68802 11.28 9.96136 11.12 10.248 10.9067L10.848 10.4534L11.5414 10.7334L12.388 11.0734L12.8547 10.2667L12.1347 9.70671L11.5414 9.24004L11.6347 8.48671C11.6547 8.28671 11.668 8.14004 11.668 8.00004ZM8.00136 5.33337C6.52802 5.33337 5.33469 6.52671 5.33469 8.00004C5.33469 9.47337 6.52802 10.6667 8.00136 10.6667C9.47469 10.6667 10.668 9.47337 10.668 8.00004C10.668 6.52671 9.47469 5.33337 8.00136 5.33337ZM6.66802 8.00004C6.66802 8.73337 7.26802 9.33337 8.00136 9.33337C8.73469 9.33337 9.33469 8.73337 9.33469 8.00004C9.33469 7.26671 8.73469 6.66671 8.00136 6.66671C7.26802 6.66671 6.66802 7.26671 6.66802 8.00004Z" fill="#313131"/>
</g>
</svg>
