<svg width="112" height="112" viewBox="0 0 112 112" fill="none" xmlns="http://www.w3.org/2000/svg">
<rect opacity="0.4" width="112" height="112" rx="56" fill="#E1E1E1"/>
<circle cx="56" cy="56" r="44" fill="#E1E1E1"/>
<path d="M73.0625 54.75H68.25V49.9375C68.25 49.7188 68.0312 49.5 67.8125 49.5H66.9375C66.6641 49.5 66.5 49.7188 66.5 49.9375V54.75H61.6875C61.4141 54.75 61.25 54.9688 61.25 55.1875V56.0625C61.25 56.3359 61.4141 56.5 61.6875 56.5H66.5V61.3125C66.5 61.5859 66.6641 61.75 66.9375 61.75H67.8125C68.0312 61.75 68.25 61.5859 68.25 61.3125V56.5H73.0625C73.2812 56.5 73.5 56.3359 73.5 56.0625V55.1875C73.5 54.9688 73.2812 54.75 73.0625 54.75ZM55.6172 58.25C54.0312 58.25 53.3203 59.125 50.75 59.125C48.125 59.125 47.4141 58.25 45.8281 58.25C41.7812 58.25 38.5 61.5859 38.5 65.6328V67.875C38.5 69.3516 39.6484 70.5 41.125 70.5H60.375C61.7969 70.5 63 69.3516 63 67.875V65.6328C63 61.5859 59.6641 58.25 55.6172 58.25ZM61.25 67.875C61.25 68.3672 60.8125 68.75 60.375 68.75H41.125C40.6328 68.75 40.25 68.3672 40.25 67.875V65.6328C40.25 62.5156 42.7109 60 45.8281 60C46.9219 60 47.9609 60.875 50.75 60.875C53.4844 60.875 54.5781 60 55.6172 60C58.7344 60 61.25 62.5156 61.25 65.6328V67.875ZM50.75 56.5C54.5781 56.5 57.75 53.3828 57.75 49.5C57.75 45.6719 54.5781 42.5 50.75 42.5C46.8672 42.5 43.75 45.6719 43.75 49.5C43.75 53.3828 46.8672 56.5 50.75 56.5ZM50.75 44.25C53.5938 44.25 56 46.6562 56 49.5C56 52.3984 53.5938 54.75 50.75 54.75C47.8516 54.75 45.5 52.3984 45.5 49.5C45.5 46.6562 47.8516 44.25 50.75 44.25Z" fill="#888888"/>
</svg>
