<svg width="20" height="20" viewBox="0 0 20 20" fill="none" xmlns="http://www.w3.org/2000/svg">
<g id="icon/action/view_agenda_24px">
<path id="icon/action/view_agenda_24px_2" fill-rule="evenodd" clip-rule="evenodd" d="M17.0835 2.5H2.91683C2.4585 2.5 2.0835 2.875 2.0835 3.33333V8.33333C2.0835 8.79167 2.4585 9.16667 2.91683 9.16667H17.0835C17.5418 9.16667 17.9168 8.79167 17.9168 8.33333V3.33333C17.9168 2.875 17.5418 2.5 17.0835 2.5ZM16.2502 7.5V4.16667H3.75016V7.5H16.2502ZM16.2502 15.8333V12.5H3.75016V15.8333H16.2502ZM2.91683 10.8333H17.0835C17.5418 10.8333 17.9168 11.2083 17.9168 11.6667V16.6667C17.9168 17.125 17.5418 17.5 17.0835 17.5H2.91683C2.4585 17.5 2.0835 17.125 2.0835 16.6667V11.6667C2.0835 11.2083 2.4585 10.8333 2.91683 10.8333Z" fill="#888888"/>
</g>
</svg>
