<svg width="19" height="15" viewBox="0 0 19 15" fill="none" xmlns="http://www.w3.org/2000/svg"><path d="M12.286 14.24c1.164-.886 2.126-2.088 2.887-3.607.716-1.477 1.052-2.996 1.007-4.557-.447.253-.94.38-1.477.38-1.03 0-1.835-.296-2.417-.886-.626-.549-.94-1.308-.94-2.279 0-.97.336-1.772 1.007-2.405.627-.59 1.5-.886 2.619-.886 1.253 0 2.238.422 2.954 1.266.716.886 1.074 2.11 1.074 3.67 0 1.984-.537 3.925-1.611 5.823-1.075 1.9-2.44 3.313-4.096 4.241l-1.007-.76zm-11.346 0c1.164-.886 2.126-2.088 2.887-3.607.716-1.477 1.052-2.996 1.007-4.557-.448.253-.94.38-1.477.38-1.03 0-1.835-.296-2.417-.886C.313 5.02 0 4.262 0 3.29 0 2.321.336 1.52 1.007.886 1.634.296 2.507 0 3.625 0 4.88 0 5.863.422 6.58 1.266c.716.886 1.074 2.11 1.074 3.67 0 1.984-.537 3.925-1.612 5.823-1.074 1.9-2.439 3.313-4.095 4.241L.94 14.24z" fill="#E1E1E1"/></svg>